<svg width="880" height="47" viewBox="0 0 880 47" fill="none" xmlns="http://www.w3.org/2000/svg">
<path d="M19.7555 21.9422C38.1468 19.6695 50.7113 22.0829 67.7712 22.4637C105.331 23.3016 154.865 22.5052 193.278 22.4833C222.373 22.4691 251.884 22.5414 280.8 22.5375C282.281 22.537 283.165 22.782 283.835 22.7819C290.156 22.7817 300.752 22.5011 307.047 22.4979C320.223 22.4947 343.212 22.3002 355.31 22.4339C360.429 22.4921 365.705 22.4882 367.711 23.0637C369.589 23.0776 370.606 22.5327 371.095 22.4992C371.1 22.4996 371.106 22.5001 371.111 22.5006C372.692 22.3962 376.642 22.7359 377.541 22.704C377.673 22.6991 376.857 22.3187 379 22.4159C379.19 22.4242 379.017 22.6898 380.818 22.6765C381.29 22.6732 387.29 22.2105 388.994 22.1684C394.721 22.0321 408.358 22.2027 415.183 22.1147C416.224 22.1024 416.821 21.9409 417.917 21.925C418.48 21.9166 419.342 22.0737 419.518 22.0706C420.293 22.0554 423.65 21.2529 422.46 22.7693C425.971 22.6303 424.928 22.1467 425.004 21.8234C428.807 21.7288 430.636 22.4119 431.614 21.6495C449.511 21.501 467.404 21.3135 485.287 21.072C486.101 21.061 486.914 21.0499 487.726 21.0386C487.729 20.9164 487.732 20.7941 487.736 20.6718C493.284 21.056 495.127 20.1935 498.271 20.8402C500.226 20.6452 502.172 20.4497 504.108 20.2537C553.954 19.7033 603.653 17.6629 652.841 15.5018C654.922 15.4098 655.456 15.6469 658.847 15.4955C662.688 15.3235 667.921 14.7779 672.935 14.5383C677.267 14.3321 683.713 14.2559 688.634 14.037C689.734 13.9879 690.514 13.7819 690.638 13.7763C691.36 13.7447 691.41 14.0031 692.109 13.9735C692.93 13.9382 693.977 13.689 694.953 13.6485C698.617 13.4951 702.545 13.2096 703.029 13.1869C705.263 13.0866 705.758 13.3134 705.942 13.3059C708.399 13.1975 707.462 13.02 708.073 12.9986C711.309 12.8834 713.551 13.329 717.916 12.5151C717.809 12.7351 717.702 12.955 717.595 13.175C720.965 13.0923 718.709 12.6606 719.39 12.5168C719.662 12.4642 726.868 12.089 727.424 12.062C729.352 11.977 729.415 12.2563 729.582 12.2497C729.958 12.2357 734.88 11.5968 737.332 11.6808C740.337 11.7746 736.862 12.5834 737.61 12.642C737.742 12.652 740.847 12.385 741.267 12.537C741.739 12.6997 739.065 12.8757 739.108 12.9541C739.152 13.008 743.598 13.108 742.767 13.434C742.132 13.7496 736.031 13.8107 734.801 14.0166C734.593 14.0513 735.01 14.358 734.825 14.3824C734.074 14.4843 720.184 15.3672 719.567 15.3422C720.282 15.1469 720.993 14.9516 721.7 14.7562C720.746 14.7992 719.786 14.8421 718.82 14.885C720.185 14.6808 721.537 14.4765 722.879 14.2721C720.824 13.1479 714.706 14.7834 714.531 15.4176C714.442 15.712 718.181 16.2338 714.766 16.8693C715.296 16.9122 715.819 16.9554 716.352 16.9978C717.451 16.8105 718.542 16.6231 719.627 16.4356C718.895 16.403 718.16 16.3704 717.422 16.3378C717.687 16.235 717.951 16.1322 718.215 16.0295C720.267 15.7668 722.249 15.5064 724.293 15.2404C725.356 15.2387 725.152 15.508 725.879 15.5122C734.853 15.57 728.996 15.1471 734.878 14.8815C735.723 14.964 736.563 15.0465 737.399 15.129C737.055 14.5816 739.741 14.7627 742.839 14.3054C742.479 14.5144 742.118 14.7235 741.756 14.9325C746.299 14.5314 755.624 14.7914 753.053 13.9572C754.107 13.9683 755.153 13.9793 756.19 13.9903C757.033 13.762 757.945 13.5281 758.812 13.2971C760.039 13.2249 761.253 13.1527 762.455 13.0806C762.467 13.1699 762.48 13.2591 762.492 13.3483C761.535 13.4216 760.57 13.4948 759.596 13.568C760.347 13.7867 761.094 14.0053 761.836 14.224C762.538 14.1253 763.252 14.0253 763.978 13.9241C760.908 13.8984 764.904 13.1696 765.826 12.7346C768.329 12.4066 769.998 12.7446 770.856 12.6975C771.143 12.682 773.517 12.081 774.264 12.0957C774.545 12.1001 774.612 12.1849 774.289 12.4068C774.238 12.4435 774.176 12.4839 774.102 12.5283C774.167 12.52 774.232 12.5117 774.297 12.5034C776.71 12.1989 778.947 11.9048 781.352 11.5918C782.31 11.5801 783.258 11.5685 784.195 11.5571C782.197 12.1568 788.15 12.1506 783.811 12.7054C780.574 13.1175 779.676 12.7933 778.16 12.9233C776.768 13.0412 776.047 13.3688 774.496 13.5072C774.457 13.5107 774.419 13.5141 774.38 13.5176C764.222 14.4161 755.861 14.9866 746.131 15.5457C744.165 15.6581 742.465 15.9051 741.164 15.9746C739.7 16.0521 741.513 15.5944 739.65 15.8013C737.683 16.0193 737.271 16.3199 736.766 16.3589C736.448 16.3829 735.423 16.204 734.487 16.2651C730.587 16.5209 725.019 17.107 724.435 17.1411C723.823 17.1808 712.899 17.6152 712.387 17.6004C712.107 17.5946 712.637 16.6547 710.273 17.7613C709.521 17.8228 708.749 17.8852 708.018 17.945C708.128 17.757 708.237 17.569 708.347 17.381C703.979 18.3184 705.484 17.8483 701.166 18.1426C690.907 18.845 675.798 19.4595 664.565 20.0415C662.07 20.1719 661.091 20.4345 658.13 20.5841C655.426 20.7215 648.119 20.3911 649.745 21.2187C643.643 20.704 642.638 22.0858 639.552 21.3774C639.189 21.5142 638.825 21.651 638.461 21.7877C635.127 21.402 634.094 21.9031 630.445 22.1115C628.891 22.2003 630.668 21.5749 627.542 22.3163C626.937 22.2938 626.331 22.2714 625.723 22.2489C625.859 22.1092 625.994 21.9694 626.13 21.8297C622.612 22.0759 622.368 22.0143 622.794 22.5013C621.058 22.4761 619.406 22.4469 617.702 22.4189C617.498 22.5917 617.294 22.7645 617.089 22.9372C617.899 23.2536 656.446 21.2121 661.799 20.7745C668.051 20.8663 680.77 19.7781 685.801 19.6037C687.854 19.5337 688.781 19.8597 691.721 19.7497C694.663 19.6396 698.417 19.0962 699.959 18.999C705.223 18.688 730.068 17.2756 713.198 18.7451C713.694 18.8983 714.188 19.0516 714.681 19.2047C721.362 18.1849 718.967 18.7116 724.522 18.4347C726.913 18.3154 732.396 17.5579 732.169 18.3999C727.837 18.8334 723.161 18.859 719.398 19.098C719.015 19.123 714.55 19.7683 712.243 19.7992C710.159 19.8263 711.505 18.9607 707.054 20.1012C703.664 19.4282 701.715 20.3205 700.835 20.4527C699.323 20.6806 699.133 20.2639 697.597 20.2977C695.923 20.3338 694.774 20.6787 694.543 20.6929C692.252 20.827 680.302 21.4792 679.743 21.3309C680.222 21.2313 680.7 21.1316 681.176 21.032C678.062 21.0661 678.727 21.469 677.908 21.5619C677.298 21.5906 676.667 21.62 676.074 21.6475C676.309 21.5454 676.539 21.4436 676.781 21.3411C673.136 21.5387 675.962 21.7168 670.749 21.9595C667.387 22.1151 664.03 21.9249 663.693 21.966C663.599 21.9777 664.65 22.1621 663.304 22.2556C661.067 22.4108 657.193 22.5797 656.763 22.2817C655.677 22.3751 655.783 22.6806 655.639 22.6941C655 22.7557 644.106 23.334 642.12 23.4322C636.724 23.7086 630.65 23.8871 624.798 24.1649C624.192 24.1935 624.572 23.9798 623.963 24.0096C622.966 24.0588 618.021 24.558 617.275 24.6072C615.433 24.7304 610.469 24.7872 609.739 24.9034C609.63 24.9201 611.238 25.1313 609.372 25.2817C607.297 25.4482 608.403 25.0469 608.29 25.0473C604.056 25.0744 601.301 25.4206 598.446 25.5664C597.511 25.6139 595.768 25.4004 594.437 25.5252C594.284 25.5395 594.596 25.7806 594.446 25.798C592.441 25.9969 590.506 25.5933 589.662 25.5905C587.55 25.5852 588.71 25.8921 588.6 25.8981C587.194 25.9547 585.29 25.8916 583.127 25.9763C573.528 26.3514 565.709 26.6034 555.477 26.8621C554.203 26.8944 552.677 26.6926 552.481 26.6976C551.875 26.7158 552.058 26.9965 550.3 27.0371C546.562 27.1221 543.192 27.2233 539.522 27.3103C538.784 27.3277 538.462 27.0712 537.898 27.0796C535.976 27.1119 529.62 27.9585 529.485 27.0992C525.779 27.9505 523.205 27.3522 520.246 27.4266C513.135 27.6058 501.952 27.9962 494.853 28.0339C493.364 28.0417 492.657 27.8344 491.825 27.8384C491 27.8421 488.015 27.9311 485.414 28.0041C483.353 28.0625 481.544 28.1108 481.345 28.0988C480.467 28.0475 480.985 27.0666 476.483 27.9925C473.831 28.0987 474.135 27.6941 473.586 27.682C469.329 27.5945 465.219 28.5514 465.975 27.7231C461.012 28.0253 457.788 28.5256 455.771 27.7934C455.803 28.1653 453.484 28.4242 450.664 28.324C453.537 27.6554 453.177 27.2625 460.115 27.2691C460.225 27.2692 460.019 27.5417 460.129 27.5418C461.131 27.5444 463.213 27.3755 464.908 27.3626C466.604 27.3498 465.666 27.5491 466.344 27.5345C466.964 27.5208 466.939 27.2635 467.836 27.2451C470.741 27.1872 473.3 27.0727 474.978 27.0392C476.028 27.0185 477.204 27.2245 478.016 27.2103C479.758 27.1787 482.573 27.0738 485.395 26.9775C487.699 26.8996 490.005 26.8273 491.779 26.8044C492.609 26.7943 492.267 27.0551 494.079 27.0411C494.291 27.0394 495.058 26.7597 496.637 26.6737C498.203 26.5879 499.468 26.6941 500.492 26.6461C501.351 26.6058 500.989 26.3779 502.746 26.3273C504.198 26.2901 520.771 26.1006 521.631 26.1142C522.905 26.1393 523.549 26.455 524.339 26.3964C524.478 26.3845 524.708 26.0599 525.191 26.0258C533.094 25.4695 550.706 25.4577 559.732 25.1964C578.72 24.6575 596.067 23.915 615.238 23.136C615.577 23.0679 615.916 22.9998 616.255 22.9317C614.331 23.0009 612.357 23.0709 610.443 23.1377C610.426 22.988 610.408 22.8383 610.391 22.6887C607.802 22.7579 608.153 23.1005 608.235 23.3122C607.27 23.2555 606.302 23.1988 605.331 23.1419C604.504 23.6955 598.062 23.5705 594.742 23.6812C592.578 23.7536 589.981 24.0383 588.867 24.0589C586.475 24.1043 586.522 23.7792 586.335 23.7801C586.016 23.7832 582.666 24.1751 580.214 24.2402C576.648 24.3348 576.268 23.8509 571.353 24.4193C565.07 24.349 558.068 24.677 551.336 24.8997C552.635 24.4064 546.485 25.005 543.806 25.0661C527.112 25.455 506.571 25.7135 489.638 25.8483C487.9 25.8629 486.491 25.7141 485.371 25.6685C485.089 25.6568 484.826 25.6518 484.58 25.6581C483.928 25.6746 483.649 25.9981 482.74 25.9724C482.58 25.9672 482.465 25.6716 480.77 25.657C476.534 25.6216 466.022 26.2943 463.337 25.7643C448.895 26.0837 434.404 26.3729 419.948 26.6375C419.582 26.5203 419.215 26.4031 418.848 26.2859C416.156 26.9413 405.207 26.7027 399.966 26.7869C390.633 26.9401 378.722 27.2482 370.585 27.3406C368.812 27.3609 367.354 27.1972 365.67 27.2153C364.945 27.2233 364.045 27.4596 363.289 27.4672C354.866 27.5562 343.421 27.4081 334.897 27.4722C315.572 27.6178 297.375 27.6843 277.791 27.7832C211.812 28.1151 146.212 28.5221 80.7966 28.4106C79.9204 28.4091 79.9641 28.1462 79.2849 28.1446C75.2787 28.1331 66.3074 28.3522 61.7818 28.3412C58.1733 28.3328 52.4411 27.9317 51.1978 28.3366C64.0289 28.9476 77.5689 28.8982 90.9311 29.0636C91.8801 29.0753 91.9981 29.3252 92.115 29.3297C94.2758 29.4155 92.9115 29.072 96.0438 29.0549C97.0854 29.0493 106.776 29.8418 105.621 29.0481C107.934 29.3649 124.28 29.512 127.426 29.4036C128.382 29.3707 127.705 29.1359 127.895 29.1239C128.719 29.0712 129.091 29.3953 129.828 29.403C131.795 29.4214 136.801 29.1534 137.75 29.1542C139.941 29.1549 146.475 29.4118 149.374 29.346C152.023 29.2859 151.527 28.9476 153.815 28.9136C155.617 28.8876 153.655 29.1753 157.678 29.256C159.667 29.2956 166.651 29.0815 168.349 29.0787C170.046 29.0761 171.932 29.2759 174.268 29.2565C177.622 29.229 184.974 29.1029 188.395 29.031C188.599 29.0269 189.097 28.7623 189.601 28.7668C190.644 28.7758 190.331 29.102 191.119 29.1335C191.891 29.1654 205.591 29.0958 207.895 29.0933C209.491 29.0912 210.595 28.8945 211.483 28.894C212.178 28.8941 212.253 29.1652 212.962 29.1664C213.182 29.1659 215.05 28.9255 216.914 28.9261C218.679 28.9272 225.35 29.1327 226.125 29.1324C226.631 29.1319 226.076 28.9407 227.571 28.941C228.932 28.9417 229.827 29.1893 230.602 29.1906C232.401 29.1934 234.41 28.9738 236.314 28.9667C241.786 28.9465 241.502 29.2571 241.833 29.2662C242.748 29.2911 243.113 29.0059 243.413 28.999C244.681 28.971 247.781 28.9078 248.907 28.8927C250.31 28.874 250.905 29.1418 252.394 29.1372C253.507 29.133 255.731 28.8617 258.276 28.8391C264.019 28.7868 270.76 28.7092 276.405 28.694C278.081 28.6892 278.339 28.9343 278.851 28.9384C281.54 28.96 283.04 28.6774 283.806 28.6773C289.258 28.6767 299.056 29.0584 304.118 29.0666C306.206 29.07 315.231 28.8185 320.351 28.8217C320.937 28.8218 320.389 29.0183 321.041 28.984C322.6 28.9017 322.452 28.5094 323.243 28.5162C323.624 28.5208 324.495 28.7369 325.603 28.7518C331.344 28.8289 335.299 28.6288 337.931 28.6221C363.13 28.5587 388.807 28.429 412.346 28.1896C414.976 28.1627 418.176 27.8908 422.176 28.0686C422.3 28.1892 422.423 28.3099 422.547 28.4306C422.685 28.3088 422.822 28.187 422.96 28.0652C427.458 27.944 429.122 27.7681 433.707 27.8604C434.104 27.8679 435.322 28.4095 436.06 27.7067C440.613 28.1467 438.114 27.6748 441.477 27.5815C444.824 27.4881 448.111 27.5955 451.386 27.5817C453.191 27.8034 445.644 28.4868 445.17 28.4911C444.386 28.5001 443.566 28.1672 442.809 28.1596C440.568 28.1364 438.394 28.4395 437.885 28.139C434.976 28.5036 438.6 28.2919 438.24 28.5896C436.296 28.495 434.344 28.4001 432.391 28.3047C431.437 29.3144 420.699 28.1514 421.445 28.8996C420.587 28.7584 419.728 28.6171 418.867 28.4757C415.158 29.4717 412.961 28.828 407.954 28.6017C408.316 28.7193 408.679 28.8369 409.041 28.9544C408.941 29.0065 404.519 29.2506 406.095 28.7147C401.584 29.4476 401.783 28.3094 397.744 29.1736C395.338 29.3042 396.785 28.8124 392.466 28.8651C389.891 28.896 386.771 29.1765 383.915 29.2215C383.259 29.2311 382.97 28.9577 382.386 28.9633C381.801 28.969 381.519 29.2425 380.81 29.256C379.345 29.2846 377.44 29.1122 376.521 29.139C375.706 29.1621 374.546 29.4116 372.579 29.4668C365.701 29.6607 367.77 29.3008 366.682 29.195C365.509 29.0823 364.672 29.539 362.329 29.5065C362.094 29.503 362.698 29.2179 361.936 29.2353C361.326 29.249 361.023 29.556 359 29.6293C358.216 29.6597 345.61 29.8235 343.732 29.8417C340.818 29.8718 334.257 29.6605 331.233 29.6825C330.069 29.6904 328.825 29.9431 327.585 29.9496C323.482 29.9713 316.861 29.9922 311.667 30.0105C306.968 30.0275 298.709 29.533 296.147 30.033C289.551 30.1304 287.928 29.7215 287.433 29.7184C286.093 29.7093 285.474 29.988 283.783 30.0089C261.831 30.2754 232.902 30.1911 212.101 30.2635C163.852 30.4376 115.347 30.6236 66.9205 30.5236C66.7907 30.6458 66.661 30.768 66.5312 30.8902C72.2607 30.9677 78.9756 31.178 84.6305 31.2243C92.1763 31.2857 103.363 30.771 108.896 31.6026C106.653 31.6772 102.997 31.3591 103.062 31.7885C107.076 31.817 111.081 31.8451 115.091 31.8729C114.971 31.6747 114.852 31.4764 114.732 31.2781C118.925 31.2175 123.21 31.2574 127.407 31.2253C128.137 31.22 127.62 31.0404 128.255 31.0389C128.965 31.0376 128.484 31.2213 128.617 31.2227C130.411 31.2229 130.956 31.037 131.175 31.0394C131.739 31.0462 131.301 31.2231 132.926 31.2711C135.939 31.3606 138.093 30.8895 137.387 31.6713C138.359 31.6703 139.331 31.6693 140.302 31.6683C140.553 31.4554 140.805 31.2425 141.056 31.0296C147.023 31.8816 149.789 30.3722 153.093 31.563C154.183 31.3791 155.271 31.1952 156.36 31.0113C156.973 31.2231 157.587 31.4349 158.201 31.6467C158.32 31.464 158.439 31.2814 158.559 31.0987C164.411 31.2253 170.688 30.9967 176.284 31.0081C180.184 31.0161 181.136 31.0864 184.599 31.0663C192.3 31.0204 184.655 31.3973 191.051 31.7758C190.718 31.5527 190.384 31.3296 190.051 31.1065C191.11 31.0224 192.168 30.9383 193.225 30.8541C193.961 31.0351 194.701 31.216 195.441 31.397C198.72 30.4435 200.842 31.2027 201.288 31.2017C201.648 31.1992 202.886 30.6268 206.755 31.1002C205.15 30.325 209.705 31.0886 210.069 31.0922C210.418 31.0945 214.869 30.9094 216.671 30.9119C218.09 30.9138 221.114 31.0733 223.221 31.0592C225.081 31.0466 224.891 30.7827 225.027 30.7795C227.32 30.751 225.884 30.9606 227.546 30.9659C229.209 30.9711 230.497 30.7418 230.855 30.7609C231.036 30.7711 230.434 31.0192 231.259 31.0405C233.477 31.0988 237.478 30.8705 240.006 30.8686C240.901 30.8676 242.036 31.0729 243.04 31.0759C244.579 31.0798 245.296 30.7998 246.189 30.8049C246.499 30.8075 248.483 31.2294 250.941 31.1547C251.408 31.1398 252.779 30.2274 254.606 31.5062C254.746 31.3248 254.885 31.1434 255.025 30.9619C263.279 30.4829 265.589 31.9424 269.243 30.623C275.216 30.7432 271.118 31.2687 271.774 31.3437C272.193 31.3911 274.158 31.2429 274.372 31.2499C274.753 31.2638 274.688 31.4272 275.106 31.4244C282.755 31.3599 279.355 31.0671 281.774 30.8609C287.513 30.3695 291.99 31.3787 282.009 31.1169C282.01 31.2079 282.01 31.2989 282.011 31.3899C284.468 31.2916 290.716 31.3022 288.631 31.7739C286.991 32.1465 272.164 31.9771 280.567 32.4487C282.474 32.5552 283.461 32.2092 286.757 32.8335C288.936 32.8576 289.259 32.0267 292.222 32.3447C291.733 32.0578 291.245 31.7709 290.756 31.484C294.799 31.0867 299.769 31.5663 302.854 31.3872C303.913 31.3263 307.707 29.9254 306.828 31.3095C308.609 31.2139 316.926 31.4187 318.474 31.2851C318.846 31.2529 319.337 30.5161 324.734 30.7379C325.109 30.8275 325.484 30.9171 325.859 31.0067C320.931 31.306 329.638 31.5215 327.278 32.2336C326.475 31.9258 322.562 31.76 321.929 31.6063C320.85 31.342 324.056 30.9725 319.968 31.0934C317.397 32.2741 324.763 31.6919 323.643 32.8047C328.996 32.254 329.526 32.7424 330.736 32.7549C335.907 32.8033 339.2 32.6628 344.072 32.756C345.263 32.5204 336.417 32.2566 335.311 32.3618C339.356 31.5284 332.369 31.5411 329.47 32.0382C329.223 31.7965 328.976 31.5548 328.729 31.3131C332.521 31.4199 336.273 31.4617 340.047 31.2349C340.294 31.3241 340.54 31.4133 340.787 31.5025C339.941 31.6456 339.094 31.7887 338.246 31.9317C341.392 32.1336 339.504 31.4378 343.688 32.0288C343.815 31.7539 343.943 31.4789 344.07 31.204C348.052 31.2655 352.117 31.3252 356.119 31.384C358.198 30.8184 365.917 30.9581 364.514 31.6812C367.641 31.7047 363.778 31.3592 366.706 31.161C367.98 31.0749 370.464 31.032 371.078 31.2179C370.822 31.8977 367.103 32.0144 365.978 32.4891C366.674 32.6354 383.947 31.9936 382.423 32.7985C383.805 32.8805 383.168 32.4786 385.654 32.3499C392.602 31.9916 403.426 32.6831 409.058 31.6061C402.4 31.1179 400.531 31.7342 395.451 31.8114C392.179 31.8645 372.525 32.1471 376.903 31.3889C376.175 31.4866 375.463 31.5841 374.742 31.6817C374.012 31.4751 373.281 31.2685 372.55 31.0619C374.606 31.0128 376.648 30.9634 378.726 30.9133C379.221 31.1213 379.717 31.3293 380.212 31.5373C380.439 31.3834 380.665 31.2294 380.891 31.0754C381.76 31.0371 382.628 30.9986 383.496 30.9601C383.254 31.1449 383.012 31.3297 382.77 31.5146C384.108 31.5329 385.444 31.5511 386.778 31.5692C386.417 31.3289 386.055 31.0886 385.693 30.8483C391.973 30.7249 389.836 30.8986 393.35 31.319C395.966 31.3385 391.547 30.9158 397.072 30.7391C403.489 30.5322 399.261 31.3239 407.584 31.0721C407.703 30.949 407.822 30.826 407.941 30.703C409.775 30.804 411.606 30.9046 413.431 31.0049C413.188 30.8565 412.945 30.708 412.702 30.5596C416.462 30.5747 421.652 30.2225 422.92 30.8001C419.081 30.5618 419.126 31.5971 420.129 31.7755C422.215 32.1498 452.511 31.3777 458.361 31.2498C465.92 31.0992 471.518 31.3384 478.426 30.7074C473.729 30.3755 457.391 30.9819 454.321 30.7356C454.013 30.7118 454.087 29.7608 452.13 30.8589C445.724 30.7733 438.189 31.1824 430.222 31.2548C430.459 30.9782 430.697 30.7016 430.935 30.425C435.822 30.943 440.346 29.6024 439.718 30.6736C440.689 30.6602 441.659 30.6467 442.627 30.6331C442.624 30.4501 442.622 30.2671 442.619 30.0841C444.083 30.0635 445.518 30.0431 447 30.0217C447.003 30.2047 447.005 30.3877 447.008 30.5707C448.229 30.553 449.447 30.5352 450.663 30.5173C450.787 30.3329 450.911 30.1486 451.035 29.9642C454.67 30.2916 467.039 29.0818 461.603 30.2579C463.318 30.2308 465.028 30.2033 466.732 30.1755C466.724 30.0417 466.717 29.908 466.709 29.7743C467.441 29.7444 468.172 29.7143 468.903 29.6843C468.664 29.8094 468.426 29.9345 468.187 30.0595C471.522 29.7876 474.732 30.3705 476.94 29.9129C475.479 29.8468 474.014 29.7804 472.545 29.7137C475.368 29.8402 480.504 29.3895 480.96 29.3802C482.359 29.3534 483.1 29.6106 484.609 29.5968C484.998 29.5931 485.26 29.5737 485.442 29.5479C485.905 29.4835 485.858 29.3798 486.043 29.3817C493.492 29.4545 490.671 30.6323 494.099 29.2342C494.468 29.409 494.838 29.5838 495.207 29.7586C495.691 29.5973 496.175 29.436 496.658 29.2747C498.808 29.2466 501.052 29.2158 503.231 29.1855C502.496 28.973 501.76 28.7605 501.023 28.5479C504.312 28.3798 505.839 28.8036 506.157 28.8075C507.052 28.8154 507.454 28.5206 507.731 28.5143C521.081 28.2524 512.994 28.6787 519.671 29.6063C522.026 29.1309 519.625 28.7622 519.279 28.3405C522.421 28.4709 523.414 28.3293 526.77 28.2746C527.642 28.2606 528.582 28.47 529.129 28.4601C529.604 28.4516 531.079 28.1701 532.211 28.1417C534.081 28.0946 536.644 28.1785 539.25 28.1092C541.421 28.0515 548.002 27.7086 552.642 27.5806C554.609 27.5274 554.156 27.7455 554.663 27.7321C554.875 27.7264 556.394 27.4381 557.644 27.4025C568.011 27.1096 578.5 26.9514 588.883 26.6098C596.191 26.3699 603.617 25.9174 610.88 25.6753C612.428 25.6239 611.619 25.8343 612.302 25.8159C612.536 25.8089 612.813 25.4832 615.232 25.5213C616.104 25.535 615.111 25.7927 615.967 25.7721C616.382 25.7619 616.554 25.4788 618.97 25.3251C623.334 25.0458 625.793 25.3188 626.17 25.2933C626.912 25.2432 626.687 25.0227 627.669 24.9761C632.407 24.7504 636.552 24.5438 640.775 24.3491C642.832 24.2596 656.649 23.6132 657.396 23.6162C659.089 23.6316 657.525 24.1813 659.707 24.0661C660.319 23.9171 660.93 23.768 661.538 23.6188C660.563 23.5714 659.559 23.5249 658.599 23.4761C661.289 23.5088 664.328 23.1504 666.284 23.0669C666.631 23.0528 670.027 23.1099 671.745 23.0032C671.019 23.1281 670.291 23.253 669.56 23.3778C669.824 23.442 670.087 23.5062 670.35 23.5705C673.795 23.2896 677.377 23.1175 680.924 22.956C682.19 22.898 681.773 23.1056 683.049 23.0475C690.536 22.7036 688.581 22.0297 695.872 23.0974C693.397 23.1015 684.557 23.7463 683.289 23.7599C682.402 23.7713 678.854 22.7184 680.196 23.914C672.962 24.2667 679.2 23.2638 672.52 23.7412C672.661 23.8885 672.802 24.0358 672.943 24.1831C670.615 24.3927 668.848 24.5543 667.425 24.3494C667.025 25.117 658.975 25.0537 654.665 25.2932C648.311 25.6469 641.219 26.1291 634.993 26.4127C632.834 26.5108 631.585 26.2674 631.312 26.2792C630.919 26.2969 629.834 26.5965 629.05 26.6291C626.125 26.7535 617.143 26.6606 614.942 27.4518C632.445 26.8077 649.992 26.0819 667.451 25.26C665.226 25.0211 682.981 24.1265 683.842 24.0909C684.665 24.0646 683.986 24.3451 684.231 24.3475C686.055 24.3601 687.648 23.921 688.226 23.891C688.672 23.8679 689.584 23.9879 691.157 23.9015C691.446 23.8858 691.516 23.7051 691.826 23.6882C693.844 23.5817 695.958 23.4709 698.012 23.3583C698.138 23.3531 698.673 23.5825 699.193 23.5545C699.714 23.526 700.213 23.2403 700.344 23.2323C701.978 23.1446 704.881 23.1504 706.438 23.0638C706.982 23.0329 706.594 22.8656 707.203 22.8329C709.071 22.7309 708.46 23.1367 710.808 22.9059C711.591 22.8283 711.526 22.5489 713.022 22.4989C714.08 22.4636 713.994 22.9735 714.163 22.982C714.39 22.9912 718.006 22.378 719.237 22.6337C716.669 23.6613 722.102 22.5062 721.806 22.1551C723.24 22.1603 724.697 22.1631 726.163 22.1644C726.653 22.0405 727.141 21.9166 727.628 21.7927C733.453 21.8454 737.017 21.3604 742.773 21.0999C743.025 21.0903 747.911 20.9607 747.687 21.1066C744.773 21.5359 741.936 21.7386 740.038 21.4483C736.987 22.4473 736.984 21.8153 732.023 22.2416C730.345 22.3851 730.279 22.6047 730.083 22.62C723.656 23.1404 713.465 23.8409 709.043 23.4605C707.832 23.7009 712.232 23.5151 710.531 23.7389C709.639 23.8755 687.367 25.2873 694.455 24.1762C693.709 24.2363 692.972 24.2955 692.247 24.354C691.56 25.0769 687.888 25.1117 688.266 24.4086C687.925 24.5661 687.583 24.7236 687.241 24.8811C686.561 25.0346 685.723 25.1411 684.602 25.2359C680.266 25.6214 654.287 26.5998 652.932 26.7405C652.907 26.9036 652.883 27.0667 652.859 27.2298C664.328 26.908 675.427 25.9818 687.957 25.7975C687.585 25.6648 687.211 25.532 686.838 25.3993C691.843 25.3542 696.864 25.299 701.82 25.2376C696.609 25.8032 688.17 26.4808 682.635 26.5322C681.652 26.5414 682.36 26.2937 682.134 26.2795C681.54 26.2426 680.929 26.6415 678.793 26.7834C676.615 26.9282 671.35 26.9221 670.833 26.9535C669.883 27.0142 667.341 27.5554 665.757 27.6239C663.655 27.7144 665.051 27.389 664.629 27.4031C662.88 27.4588 661.305 27.66 659.917 27.7038C657.881 27.7682 653.656 27.4983 652.24 28.2322C653.708 28.1986 655.167 28.1647 656.617 28.1305C648.706 28.7246 642.487 28.1288 634.771 29.104C633.032 29.9884 639.472 29.6177 634.036 30.185C635.028 30.1335 636.016 30.0818 637.001 30.03C637.225 29.8503 637.448 29.6707 637.672 29.4911C639.374 29.5432 641.044 29.5958 642.779 29.6448C642.284 29.5136 641.788 29.3824 641.291 29.2511C647.368 28.8842 653.4 28.4628 655.556 29.1834C655.671 28.9807 655.786 28.7781 655.901 28.5755C661.478 28.5693 669.85 27.3366 668.324 28.5073C668.589 28.4365 668.854 28.3657 669.119 28.2949C672.539 28.3568 671.059 27.9726 672.332 27.8602C672.707 27.8289 679.233 27.7439 676.36 28.211C682.823 28.1413 680.775 27.2137 682.539 27.0805C686.632 27.3847 694.015 26.2312 690.95 27.197C691.559 27.1951 692.167 27.1932 692.773 27.1913C694.739 26.4543 696.798 27.0597 698.97 27.1806C699.704 27.1548 700.436 27.1289 701.165 27.103C701.636 26.8641 702.137 26.6234 702.621 26.3835C709.656 27.0033 707.222 24.3663 710.565 26.5043C710.076 26.6718 709.577 26.8399 709.094 27.0069C707.942 27.1391 706.783 27.2712 705.617 27.4032C710.293 27.2011 715.043 26.9859 719.797 26.7604C725.794 27.0494 729.157 26.1316 735.89 26.2094C736.506 26.1071 737.12 26.0047 737.731 25.9022C737.146 26.4684 734.715 26.5521 739.235 26.4895C739.634 26.8363 736.61 27.0854 735.21 26.89C734.872 26.8422 737.692 26.3723 734.499 26.5705C732.322 26.7037 736.293 26.8982 729.768 27.1495C730.013 27.2251 730.258 27.3007 730.502 27.3763C729.804 27.4181 729.102 27.4599 728.397 27.5017C727.758 27.3311 727.115 27.1604 726.471 26.9897C724.857 27.3947 723.987 27.8768 720.304 28.0095C721.295 27.8172 719.919 27.4776 718.076 27.5951C718.085 27.7472 718.094 27.8992 718.103 28.0513C713.679 28.4128 715.213 27.8742 711.541 28.4379C711.164 28.3384 710.786 28.2389 710.408 28.1394C708.436 28.7552 701.087 29.5061 702.382 28.6838C700.35 29.5255 696.025 29.4317 694.346 28.9383C694.229 29.0961 694.111 29.2538 693.994 29.4116C693.126 29.4885 692.292 29.5634 691.436 29.6392C690.954 29.5729 690.472 29.5066 689.988 29.4402C689.385 29.5634 688.779 29.6866 688.172 29.8097C687.794 29.6772 687.416 29.5448 687.038 29.4123C686.058 29.645 685.079 29.8773 684.125 30.108C683.525 30.0172 682.923 29.9264 682.32 29.8355C682.296 30.1547 676.288 30.5246 674.667 30.3941C674.18 30.5099 673.692 30.6257 673.203 30.7414C672.955 30.6025 672.706 30.4636 672.457 30.3246C672.095 30.4628 671.732 30.601 671.368 30.7391C670.512 30.6594 669.652 30.5796 668.789 30.4997C665.385 31.4002 665.246 30.7565 664.458 30.7979C663.004 30.8746 657.997 31.5655 657.192 31.5771C656.364 31.5902 655.951 31.3431 655.28 31.348C644.141 31.4199 648.781 31.9263 646.554 32.136C645.36 32.2483 644.499 32.0371 643.434 32.1093C641.565 32.2359 632.524 32.9318 631.947 32.9209C631.177 32.9051 632.923 31.668 630.464 32.0666C630.414 32.6962 625.078 32.2717 627.596 33.0479C625.41 33.0565 623.177 33.0655 620.987 33.0716C621.261 33.8045 618.57 33.4286 615.616 33.5787C611.371 33.7953 602.085 34.6095 602.359 33.8364C601.345 34.0467 600.377 34.2551 599.386 34.4641C592.543 34.4575 585.857 34.9258 579.033 35.1457C558.922 35.7969 536.985 36.2046 516.95 36.4971C515.985 36.5111 516.118 36.2592 515.422 36.269C511.718 36.3243 502.319 36.6981 497.161 36.7435C495.537 36.7581 494.737 36.5307 494.22 36.5296C492.462 36.5242 492.882 36.836 492.071 36.8424C491.267 36.8486 488.283 36.7843 485.574 36.7377C484.006 36.7097 482.536 36.6881 481.673 36.692C480.522 36.6972 479.162 36.9755 477.806 36.9207C477.689 36.9164 477.9 36.6507 477.801 36.6478C475.33 36.6588 476.82 36.8593 475.983 36.8619C470.008 36.8801 463.69 36.9782 457.229 37.0235C455.636 37.0344 453.187 36.8867 451.81 36.8897C451.285 36.8913 452.23 37.0762 450.414 37.0865C449.791 37.0901 449.574 36.8348 448.87 36.8283C445.825 36.8021 444.849 37.6466 442.251 37.015C437.252 37.1298 428.527 37.4582 423.962 37.5191C422.879 37.5334 422.349 37.3873 421.314 37.4027C420.583 37.4136 419.279 37.666 418.15 37.6825C417.016 37.6989 415.222 37.4951 413.031 37.5289C410.726 37.5641 407.846 37.7305 407.322 37.7355C406.691 37.7426 406.393 37.4614 405.761 37.4721C403.854 37.5027 398.8 37.8371 396.341 37.8928C393.706 37.9524 392.115 37.8306 391.211 37.8425C390.374 37.8548 389.417 38.1045 389.036 38.1104C388.447 38.1199 388.305 37.8408 387.556 37.8506C386.332 37.8673 385.071 38.0561 383.229 38.0785C350.05 38.4841 317.564 38.5421 285.282 38.4931C281.694 38.4873 279.667 38.6937 274.354 38.6274C272.2 38.6002 273.098 38.3068 271.433 38.3687C270.69 38.3966 270.879 38.6235 269.939 38.6385C265.785 38.7038 260.922 38.5115 259.111 38.5221C258.395 38.526 257.567 38.7878 256.105 38.797C245.187 38.8678 232.215 38.8372 220.449 38.9139C214.212 38.9549 204.779 39.1099 197.615 39.1426C177.844 39.2342 156.575 39.205 138.542 39.249C111.311 39.3147 84.2154 39.565 57.0481 39.2867C69.7532 39.9102 87.0712 39.8529 101.217 39.9127C142.089 40.0848 185.61 39.6694 227.504 39.5605C242.078 39.5231 260.473 39.4436 276.423 39.5164C277.148 39.5196 278.649 39.314 280.213 39.3278C280.547 39.3313 284.665 39.6748 286.047 39.6717C284.727 39.0333 290.17 39.5816 291.859 39.5573C293.985 39.5263 298.402 39.1815 303.353 39.3364C307.873 39.4762 306.626 39.7309 306.876 39.7452C308.472 39.8366 309.026 39.4337 310.246 39.3863C315.187 39.2002 340.911 39.264 348.022 39.22C349.88 39.2095 349.933 39.4631 350.352 39.4608C351.459 39.454 353.032 39.1908 354.8 39.1784C357.993 39.1567 361.63 39.3664 363.403 39.3523C367.641 39.3196 375.519 38.967 381.026 38.9089C382.562 38.8926 382.47 39.1579 383.165 39.1503C386.22 39.1168 394.17 38.7254 397.975 38.6818C404.108 38.6123 410.502 38.7115 416.735 38.55C417.132 38.6633 417.528 38.7765 417.924 38.8897C418.545 38.7584 419.169 38.6271 419.799 38.4957C430.436 38.4606 441.163 38.0511 451.731 37.9113C452.954 37.8955 458.936 38.0299 459.939 38.0147C460.778 38.0015 461.599 37.6964 462.841 37.7197C464.578 37.7516 462.956 38.3343 465.785 38.1294C466.544 38.074 465.804 37.8479 467.329 37.7488C467.824 37.7171 477.617 37.4548 478.151 37.4606C479.03 37.473 479.821 37.9694 480.048 37.9763C481.224 38.0131 481.166 37.6224 481.953 37.5726C483.13 37.4972 484.489 37.5137 485.589 37.5464C486.676 37.5778 487.516 37.6246 487.704 37.6183C492.316 37.4611 500.821 36.9815 505.652 37.0652C506.316 37.0772 506.242 37.3704 506.359 37.3774C507.111 37.4222 507.569 37.0804 508.281 37.0578C512.09 36.9403 518.219 37.0294 522.039 36.9984C522.479 36.9946 523.419 36.8132 524.225 36.8101C528.76 36.7944 527.29 37.0845 527.55 37.0896C528.159 37.1025 529.222 36.7947 530.831 36.7386C534.923 36.5947 543.003 36.4329 547.412 36.338C550.781 36.2667 550.731 36.5913 550.953 36.5919C551.423 36.5909 552.722 36.2977 554.912 36.2087C559.107 36.0359 558.657 36.3021 560.403 36.2423C560.55 36.2382 560.29 35.9967 562.226 35.9163C565.944 35.7628 574.359 35.7593 578.321 35.6233C579.845 35.5717 580.187 35.321 581.777 35.2668C584.299 35.1804 589.906 35.2592 590.339 35.244C590.465 35.2398 590.719 34.9553 591.463 34.9309C592.275 34.9043 593.077 35.02 593.68 34.9991C597.124 34.8818 602.921 34.1998 601.338 35.2403C602.43 34.9593 603.529 34.6777 604.618 34.3961C611.761 34.1947 618.685 33.8426 625.8 33.5179C627.396 33.4452 628.728 33.5798 630.061 33.5181C631.364 33.4585 637.363 32.9077 638.325 32.8615C640.04 32.7838 650.154 32.3225 651.384 32.2883C653.853 32.2228 656.232 32.5244 657.216 32.4005C658.004 32.3009 657.264 32.1046 658.767 31.9717C661.402 31.7408 665.907 31.8269 666.693 31.7851C667.041 31.7667 666.361 31.6204 669.595 31.4544C671.343 31.364 672.281 31.516 672.91 31.4848C673.102 31.4743 672.808 31.1696 676.21 31.0464C678.57 30.961 679.621 31.155 679.865 31.1439C680.24 31.1268 681.132 30.819 682.624 30.7529C686.08 30.6026 692.526 30.5689 695.867 30.411C696.512 30.3808 696.284 30.0754 698.844 29.9654C700.67 29.8868 700.362 30.1567 701.043 30.1294C702.114 30.086 703.767 29.6845 706.162 29.5594C709.172 29.4219 731.685 28.3783 732.832 28.3688C733.625 28.3737 734.534 28.3182 734.93 28.4301C734.607 28.5831 734.282 28.7362 733.957 28.8892C730.461 28.6516 731.881 29.089 730.98 29.1808C729.7 29.3122 724.656 29.5604 723.475 29.7493C723.051 29.8176 724.048 30.0386 721.762 30.3231C719.301 30.6277 718.15 30.1946 717.192 30.9369C713.673 30.3858 710.319 31.3868 714.408 31.3639C716.69 31.3684 738.991 30.2467 743.565 29.9546C747.255 29.7393 754.19 29.0469 758.702 28.7639C761.403 28.5985 767.963 28.1301 767.714 28.5124C770.07 28.3746 767.554 28.2078 768.043 28.1191C768.746 27.9893 772.856 27.7739 775.528 27.6184C776.623 27.5541 777.5 27.4996 777.896 27.4641C784.8 26.8485 793.477 25.6701 800.221 25.4729C799.922 25.5997 799.622 25.7264 799.321 25.8532C797.835 26.1809 790.769 26.5778 790.056 27.1067C800.302 26.1858 810.523 25.1711 820.788 23.9743C820.565 23.6229 833.256 22.0536 833.903 22.1195C833.706 22.3403 833.507 22.5611 833.307 22.7819C825.999 23.0015 826.785 23.8604 821.884 23.9337C819.926 24.1563 820.56 24.4017 819.598 24.574C810.027 26.256 819.362 23.9557 812.027 25.0455C814.287 25.2672 808.294 26.0813 805.555 26.4127C804.97 26.4915 796.867 27.1645 795.885 27.2573C790.482 27.8112 781.274 28.8639 775.883 29.0448C775.803 29.0508 775.724 29.0568 775.646 29.0628C771.629 29.3722 769.31 29.8735 765.562 30.2368C762.62 30.5194 763.482 30.2215 762.112 30.3222C759.26 30.5299 758.306 31.3045 756.438 30.4575C754.53 30.7191 752.525 30.9854 750.625 31.242C750.614 31.0901 750.604 30.9381 750.593 30.7861C749.384 30.8715 748.164 30.9568 746.933 31.042C746.581 31.2185 746.229 31.3951 745.875 31.5716C742 31.6287 743.591 31.1515 742.84 30.7705C742.004 30.7974 741.164 30.8243 740.319 30.8512C739.69 31.2251 739.049 31.5996 738.422 31.973C734.736 32.19 730.938 32.4072 727.221 32.6126C726.969 32.4763 726.717 32.3399 726.464 32.2036C726.465 32.3556 726.467 32.5076 726.468 32.6596C720.148 33.0847 713.812 33.492 707.479 33.8827C705.79 34.2249 715.992 33.8222 716.72 33.7899C721.046 33.6198 732.335 32.6662 732.386 33.2013C735.048 32.6287 743.056 32.1973 745.539 32.5093C741.811 32.7363 737.978 32.9626 734.221 33.1768C734.356 33.3499 734.49 33.523 734.624 33.6961C729.797 33.2743 729.23 33.3505 724.367 34.3448C724.348 34.1022 724.328 33.8596 724.309 33.617C721.042 34.6676 714.928 33.5925 714.849 34.6428C713.059 34.6632 711.237 34.6842 709.425 34.7032C705.586 35.0454 711.638 35.5248 696.437 36.0409C695.382 36.0756 695.59 35.7981 693.998 35.9013C693.543 35.9306 691.027 36.454 685.996 36.6717C685.217 36.7051 685.157 36.4771 684.356 36.4885C682.516 36.5128 678.817 37.154 680.468 36.3268C673.051 36.4767 676.184 36.932 673.906 37.2864C672.394 37.5207 672.679 37.0662 671.361 37.2292C669.739 37.4299 670.911 37.8216 664.422 37.9196C665.152 37.8556 665.881 37.7915 666.607 37.7273C666.235 37.624 665.863 37.5206 665.49 37.4172C661.784 37.8788 662.106 37.4398 660.366 38.1977C657.649 38.0183 655.343 38.0978 651.603 38.3161C644.438 38.7325 648.151 39.3067 639.884 38.6674C638.57 38.8598 637.25 39.052 635.923 39.2439C633.716 39.0424 635.484 38.6081 632.189 38.6666C634.772 39.2816 627.901 39.293 626.76 39.9758C626.632 39.8284 626.504 39.6809 626.376 39.5334C625.646 39.5617 624.914 39.5899 624.181 39.618C624.183 39.7402 624.185 39.8624 624.188 39.9846C623.213 39.9304 622.204 39.8772 621.252 39.8217C620.534 39.9701 619.814 40.1184 619.092 40.2666C617.888 40.056 616.679 39.8453 615.465 39.6343C614.708 39.6447 613.949 39.655 613.188 39.6652C613.436 39.8383 613.683 40.0114 613.93 40.1844C612.955 40.1592 611.959 40.1344 611.008 40.1078C612.133 40.3659 611.453 40.7414 608.451 40.8393C605.964 40.9199 608.759 40.1987 603.392 40.6457C603.018 40.6768 602.355 41.1462 597.332 41.3851C591.263 41.6708 594.197 41.25 593.113 41.2751C592.902 41.2803 591.028 41.5659 589.321 41.6533C588.344 41.7033 587.393 41.5532 587.264 41.5578C586.658 41.5855 586.49 41.8465 585.648 41.8825C583.523 41.9724 580.584 41.9391 578.534 42.0148C577.59 42.0494 576.702 42.2278 576.279 42.2425C575.622 42.2643 574.78 42.0585 574.113 42.0795C571.646 42.1588 567.916 43.0355 566.763 42.0029C564.448 43.0507 559.435 42.0068 559.815 42.6532C553.519 42.5874 536.684 43.8245 537.132 42.7056C533.534 43.7387 533.886 43.0458 532.386 43.0965C530.718 43.1522 531.587 43.3145 530.259 43.3381C527.168 43.3927 524.116 43.385 521.066 43.4506C521.546 43.2884 522.024 43.1262 522.502 42.9639C519.277 42.9888 520.398 43.3157 517.091 43.4573C510.984 43.7154 513.547 43.3776 512.636 43.001C512.858 43.3798 505.721 43.4718 504.979 43.4359C504.54 43.4141 506.45 42.8817 502.041 43.131C502.285 43.2779 502.53 43.4248 502.775 43.5716C500.746 43.4058 495.312 43.7768 494.396 43.743C493.973 43.7274 491.686 42.5471 489.618 43.5549C489.363 43.4079 489.108 43.2608 488.853 43.1138C487.804 43.2161 486.752 43.3184 485.697 43.4205C484.448 43.5432 483.196 43.6657 481.94 43.788C481.569 43.5211 481.196 43.2542 480.824 42.9874C480.093 43.0004 479.362 43.0133 478.629 43.0262C479.12 43.2604 479.61 43.4946 480.099 43.7287C475.574 43.6994 470.038 44.1748 469.109 43.371C468.147 43.5388 467.183 43.7064 466.217 43.874C465.583 43.6118 464.947 43.3497 464.311 43.0874C459.814 43.228 459.73 43.411 456.691 43.7482C456.807 43.5338 456.923 43.3193 457.039 43.1049C454.795 43.4381 450.674 43.778 447.389 43.8629C445.817 43.9031 443.187 43.6472 442.817 43.6789C442.451 43.7122 438.834 44.9138 438.423 43.9224C433.053 44.4371 430.698 44.0161 428.534 44.0551C427.127 44.0806 426.487 44.328 424.892 44.3728C422.608 44.4372 420.298 44.3498 418.972 44.3823C418.223 44.4014 418.086 44.6364 417.57 44.6499C415.126 44.7147 416.557 44.4593 413.974 44.5053C413.736 44.5108 411.851 44.8175 409.713 44.8053C408.519 44.7988 405.415 44.5134 405.14 44.5172C403.936 44.5359 404.91 45.1656 400.789 44.4711C400.91 44.5914 401.031 44.7118 401.152 44.8322C396.06 45.1956 395.237 44.6609 394.204 44.6342C394.073 44.6325 392.827 44.855 392.079 44.8337C390.812 44.7972 390.31 44.5152 390.032 44.5053C389.058 44.4712 385.77 44.6302 383.608 44.3734C384.081 45.1862 376.475 45.5488 374.816 44.6383C373.485 44.8329 372.152 45.0273 370.817 45.2217C370.211 45.0747 369.605 44.9277 368.998 44.7807C368.631 44.9357 368.264 45.0907 367.897 45.2457C365.941 44.9284 363.98 44.6108 362.019 44.2929C361.898 44.6287 361.777 44.9646 361.656 45.3004C361.113 45.2669 360.569 45.2333 360.024 45.1997C359.598 44.9371 359.171 44.6746 358.743 44.412C358.063 44.4683 357.382 44.5246 356.701 44.5809C356.534 44.7748 356.367 44.9687 356.2 45.1626C352.531 45.4136 354.412 43.563 347.407 45.2311C346.324 45.0875 345.24 44.9438 344.154 44.8C342.935 45.5479 340.633 45.1173 338.774 45.2136C337.464 45.2815 337.538 45.5745 335.75 45.5935C333.96 45.6124 334.021 45.3312 333.882 45.3303C332.414 45.3231 331.337 45.5779 330.27 45.5358C330.109 45.5295 329.706 45.1989 328.349 45.1868C326.991 45.1747 326.175 45.5346 324.147 45.4807C323.108 45.4535 322.806 45.1746 321.883 45.1556C317.466 45.0626 313.096 46.5109 309.788 44.8431C309.053 45.0612 303.648 45.8399 301.358 45.8091C297.787 45.7597 299.16 45.4213 297.739 45.3683C297.535 45.3602 296.448 45.4778 293.441 45.4731C292.903 45.4722 293.029 45.6584 292.952 45.6613C289.432 45.6757 282.653 45.561 278.802 45.5517C278.458 45.5505 276.661 46.0795 273.599 45.3924C269.092 45.9298 260.571 44.8529 254.615 45.6548C253.791 45.6743 252.789 45.4917 252.424 45.4994C249.275 45.5684 250.438 46.1303 243.3 45.3267C243.882 45.6132 242.199 45.8793 239.858 45.865C236.327 45.8435 238.834 45.2976 235.994 45.3506C235.994 45.5024 235.995 45.6542 235.995 45.806C229.462 45.418 228.124 46.071 221.584 46.093C219.227 46.1004 215.736 45.7732 215.172 45.7737C214.954 45.7753 212.369 46.1479 212.121 46.1512C210.729 46.1657 209.941 45.9989 208.746 46.0009C204.794 46.007 200.064 46.4936 200.918 45.6272C199.828 45.8121 198.738 45.997 197.647 46.1819C193.514 45.2676 190.458 46.546 189.591 45.6511C188.856 45.8377 188.121 46.0242 187.385 46.2108C169.73 46.1513 152.067 46.0817 134.424 46.0053C133.719 46.2946 126.023 46.1991 125.63 46.1545C123.819 45.9526 125.732 45.322 122.034 45.4687C121.625 45.7447 121.216 46.0206 120.807 46.2965C116.156 46.3898 118.392 46.1138 116.556 45.9283C115.788 45.9629 116.037 46.1766 114.997 46.1929C109.379 46.2822 97.8205 46.2989 91.6766 46.3189C90.4358 46.3231 90.6228 46.1231 90.2374 46.1227C89.1779 46.125 87.0865 46.3778 84.9585 46.3788C71.8127 46.3822 53.1717 46.2436 39.9391 46.033C39.04 46.0184 38.9286 45.78 38.3219 45.7681C37.481 45.7527 35.6025 45.9456 34.7179 45.9255C33.8847 45.9072 33.3507 45.7261 32.4594 45.705C28.3825 45.6064 22.8991 45.9125 18.5347 45.3786C18.1673 45.3336 13.5957 44.3737 13.4924 44.3107C12.8858 43.9371 16.9481 43.35 10.2755 42.8032C16.2391 42.326 14.3764 41.4825 6.62901 41.0704C10.5151 40.9641 14.3996 40.8577 18.2863 40.7513C18.2919 40.6514 18.2975 40.5514 18.3031 40.4514C14.7647 39.956 11.2567 39.7912 5.87755 39.7454C6.04529 39.6528 6.21302 39.5602 6.38076 39.4677C11.1318 39.0051 16.8613 38.9196 20.4806 38.2885C15.1726 37.8215 9.8691 37.3545 4.56249 36.8874C4.82752 36.8144 5.09254 36.7414 5.35756 36.6684C7.90118 36.4788 13.4567 36.3675 15.5686 36.1907C23.6364 35.5166 8.50826 35.6864 10.9933 35.2751C19.5102 35.2899 28.0275 35.3045 36.5461 35.3187C36.8422 35.0163 4.07811 34.1805 4.41488 33.2662C7.09196 33.2048 9.76897 33.1435 12.4458 33.0821C11.2527 32.8499 10.0596 32.6177 8.86652 32.3855C9.19527 32.312 9.52402 32.2384 9.85276 32.1649C14.3687 31.9845 18.8857 31.8041 23.4026 31.6236C9.66913 31.8052 3.28982 31.6735 0 29.8449C0.372382 29.7984 0.744763 29.7518 1.11714 29.7053C4.09234 30.8492 18.1331 30.4792 25.5964 30.2509C24.0758 29.9158 17.5042 30.1748 16.1153 29.9734C15.7218 29.9156 17.094 29.683 16.1823 29.564C13.8004 29.2545 3.6473 28.8562 5.12272 28.477C6.07285 28.2334 22.4096 27.8991 25.5963 27.9245C18.1263 27.487 10.4305 27.3604 2.93879 26.8283C7.66808 26.0864 11.8541 25.1786 20.487 25.1381C23.1174 24.7489 4.84573 24.2098 4.42158 23.9973C7.58397 23.7693 10.7462 23.5413 13.9081 23.3133C11.2337 23.3742 8.55903 23.435 5.88423 23.4959C5.8764 23.4197 5.86858 23.3435 5.86075 23.2674C12.7892 22.9138 19.1289 22.2649 27.0586 22.3085C26.8029 21.9056 22.0583 21.9458 19.7555 21.9422ZM779.187 29.6993C779.342 29.9631 777.391 30.1364 775.743 30.2621C775.408 30.2877 775.087 30.3112 774.803 30.333C775.052 30.3739 775.3 30.4148 775.547 30.4557C772.082 30.6772 765.538 31.0557 765.334 31.72C762.814 31.9931 763.905 31.3442 763.094 31.3414C762.798 31.3384 759.525 31.9139 756.907 31.7041C756.294 31.7505 755.678 31.7969 755.059 31.8432C754.954 32.064 754.849 32.2847 754.745 32.5055C753.861 32.3104 752.971 32.1154 752.076 31.9203C759.952 31.3201 767.848 30.683 775.722 30.0019C776.887 29.9013 778.037 29.8008 779.173 29.7004C779.178 29.7 779.182 29.6997 779.187 29.6993ZM689.237 35.8832C685.899 35.9375 680.917 35.9979 681.948 36.5291C684.021 36.3942 686.061 36.2595 688.167 36.1198C688.524 36.0409 688.881 35.9621 689.237 35.8832ZM362.397 43.7454C359.659 43.1949 357.152 43.7116 352.904 43.6415C352.91 43.7626 352.917 43.8837 352.924 44.0047C354.66 43.7003 359.239 43.8571 362.397 43.7454ZM860.629 17.5695C861.244 17.5025 861.852 17.4359 862.458 17.3685C860.136 18.4613 859.604 18.0931 856.837 18.6467C856.67 18.6799 856.754 18.8165 856.696 18.8277C856.022 18.956 855.336 18.8927 854.737 18.9983C853.559 19.2053 852.616 19.551 850.506 19.8899C848.873 20.1497 848.823 19.8663 848.248 19.9658C847.741 20.0572 843.049 21.5834 839.882 21.6895C833.878 21.9725 858.844 17.9903 860.629 17.5695ZM878.043 14.6976C877.472 14.8173 876.9 14.9369 876.327 15.0567C877.962 14.2736 874.501 15.0522 871.937 15.5758C871.938 15.149 877.384 14.2264 879.76 13.6084C879.188 13.9714 878.616 14.3345 878.043 14.6976ZM804.217 24.8505C806.467 24.5808 806.178 25.1372 806.088 25.3042C805.339 25.3805 804.635 25.4515 803.911 25.5239C804.014 25.2994 804.116 25.075 804.217 24.8505ZM821.367 22.8073C820.725 23.2454 815.783 23.9693 813.407 24.2532C813.304 24.2642 813.925 24.0003 812.281 24.1962C811.786 24.2583 806.942 25.4823 807.942 24.5634C812.426 24.0069 816.887 23.4259 821.36 22.8081C821.362 22.8078 821.365 22.8076 821.367 22.8073ZM826.42 22.4104C825.486 22.6391 824.57 22.8637 823.655 23.0866C823.154 22.9781 822.648 22.8695 822.14 22.7609C823.215 22.5909 824.254 22.4232 825.31 22.2513C825.682 22.3044 826.052 22.3574 826.42 22.4104ZM124.326 41.825C124.543 42.0042 124.76 42.1833 124.977 42.3624C125.817 42.4717 129.898 41.6873 128.606 41.5373C127.18 41.6332 125.753 41.7292 124.326 41.825ZM107.067 41.4613C106.218 41.3714 105.368 41.2814 104.517 41.1915C103.54 41.4962 102.562 41.8009 101.584 42.1056C105.834 42.3084 110.348 42.5418 109.62 41.6454C110.591 41.6447 111.562 41.6441 112.532 41.6435C111.715 42.0148 111.825 42.137 114.366 42.3706C114.923 41.8541 117.557 42.1152 120.568 41.9994C118.378 41.971 116.186 41.9424 113.993 41.9138C113.993 41.8228 113.993 41.7318 113.993 41.6409C118.88 41.6703 112.806 41.0976 109.633 41.4613C109.382 41.3403 109.132 41.2193 108.882 41.0984C108.277 41.2194 107.672 41.3403 107.067 41.4613ZM459.913 39.5942C459.299 39.5123 458.704 39.43 458.099 39.3478C455.783 40.5755 460.518 39.3723 463.959 40.2602C462.824 39.5619 468.014 39.508 468.305 39.4547C467.706 39.2233 467.107 38.9919 466.507 38.7605C464.317 39.039 462.12 39.3169 459.913 39.5942ZM442.758 39.0266C444.872 39.5919 434.548 39.7719 431.086 39.6848C430.249 39.6635 428.752 39.3565 428.147 39.4054C427.781 39.5307 427.415 39.656 427.049 39.7813C426.621 39.3703 419.828 39.9238 417.189 40.1792C416.938 40.0304 416.686 39.8816 416.435 39.7327C415.47 39.8046 414.503 39.8763 413.536 39.9479C413.656 39.7952 413.776 39.6425 413.896 39.4898C413.165 39.6803 412.434 39.8708 411.702 40.0613C408.821 40.2968 410.59 39.4517 408.423 39.7338C406.012 40.0468 409.974 40.4932 409.903 40.8135C411.861 40.7089 416.29 40.4724 418.257 40.4393C419.387 40.4206 418.11 41.0094 423.024 40.2906C424.104 40.4306 425.182 40.5704 426.259 40.7102C428.229 40.4414 430.193 40.1721 432.15 39.9025C432.517 40.1098 432.89 40.317 433.264 40.5242C433.479 40.5548 438.055 40.0115 437.806 39.8554C439.67 40.2355 443.439 40.2558 447.441 40.2183C447.827 40.0974 448.212 39.9765 448.598 39.8556C444.711 40.161 447.358 39.7515 446.195 39.5475C445.532 39.4298 443.505 39.2085 442.758 39.0266ZM151.256 41.3324C144.76 41.8577 148.775 41.4261 141.768 41.4339C142.257 41.7074 142.747 41.9808 143.237 42.2543C146.673 41.7499 152.368 42.0758 151.263 41.3324C151.261 41.3324 151.258 41.3324 151.256 41.3324ZM82.5999 42.2951C86.3154 42.1279 84.4515 41.7025 89.1586 41.5641C89.1608 41.5641 89.163 41.5641 89.1653 41.5641C86.7317 41.5345 84.2968 41.5047 81.8608 41.4749C82.1072 41.7483 82.3535 42.0217 82.5999 42.2951ZM299.658 41.4654C303.208 41.5653 302.506 41.356 305.75 41.7637C310.568 41.2199 306.488 41.316 306.485 40.8471C305.384 40.9908 304.282 41.1345 303.178 41.2781C300.515 40.8542 303.033 40.6196 303.036 40.5775C303.034 40.5775 303.032 40.5775 303.029 40.5775C303.03 40.4368 303.112 40.4067 302.094 40.3272C301.282 40.7066 300.47 41.086 299.658 41.4654ZM314.893 40.7997C313.676 41.1184 313.132 41.5216 316.333 41.7019C316.335 41.7019 316.338 41.7019 316.34 41.7019C316.587 41.0045 319.674 41.5473 321.083 41.4917C321.451 41.4137 321.82 41.3358 322.188 41.2578C319.752 41.1055 317.309 40.9529 314.893 40.7997ZM368.588 39.768C368.608 40.5366 365.913 40.6333 369.713 41.3085C370.448 41.2883 371.184 41.268 371.918 41.2477C372.399 41.0747 372.879 40.9016 373.36 40.7286C382.71 42.0335 385.452 39.6412 369.707 40.6691C369.705 40.6696 369.702 40.6702 369.7 40.6707C369.33 40.3698 368.959 40.0689 368.588 39.768ZM352.142 39.969C352.027 40.3735 351.911 40.778 351.795 41.1825C349.721 40.2251 347.051 41.1747 343.021 40.5173C342.657 40.6427 342.292 40.7681 341.928 40.8935C340.419 40.6359 325.564 40.6592 328.788 41.2579C330.193 41.5197 333.228 41.1308 333.502 41.1372C334.398 41.1615 335.568 41.5001 337.077 41.4694C337.949 41.4511 339.783 41.0305 341.557 41.0184C345.505 40.9918 352.794 42.0306 357.992 40.9523C358.368 41.0709 358.744 41.1895 359.119 41.3081C362.977 41.202 361.685 40.8273 365.306 41.2563C367.765 39.3197 350.83 41.4702 354.346 39.8866C354.343 39.8866 354.341 39.8866 354.339 39.8866C353.607 39.9141 352.875 39.9416 352.142 39.969ZM245.492 41.122C245.257 40.7786 240.754 41.3249 241.81 40.4965C240.344 40.7886 238.886 41.0806 237.422 41.3725C237.434 41.4492 237.445 41.5259 237.456 41.6025C238.912 41.5376 240.362 41.4725 241.82 41.4074C241.826 41.529 241.832 41.6507 241.838 41.7723C244.02 41.3253 253.084 41.4848 252.806 41.9164C253.289 41.7327 253.772 41.549 254.254 41.3652C258.571 41.8446 262.335 41.3031 267.049 41.7673C267.413 41.615 267.778 41.4627 268.142 41.3105C268.381 41.4311 268.619 41.5518 268.857 41.6724C270.576 41.6806 272.282 41.6886 274.014 41.6963C279.629 41.1818 268.717 40.5955 267.409 40.6724C267.234 40.6832 267.263 40.9981 266.167 41.052C264.224 41.1473 253.305 40.8761 249.947 41.0953C249.917 40.8864 249.887 40.6776 249.858 40.4688C248.404 40.6866 246.948 40.9043 245.492 41.122ZM389.417 40.395C389.664 40.6051 389.911 40.8153 390.158 41.0255C394.413 40.7702 397.099 40.9272 396 40.2356C395.997 40.2356 395.995 40.2356 395.993 40.2356C393.807 40.2892 391.584 40.3426 389.417 40.395ZM705.148 31.6382C705.025 31.2217 702.931 31.1813 700.356 31.6261C700.488 31.7418 700.62 31.8574 700.752 31.9731C702.059 31.5404 703.884 32.0693 708.06 31.7485C708.048 31.5362 708.036 31.3239 708.024 31.1116C707.07 31.2872 706.112 31.4628 705.148 31.6382ZM385.763 40.3391C384.469 40.1011 380.839 40.8965 383.232 40.9111C385.061 40.9219 386.457 40.4669 385.763 40.3391ZM67.9975 41.8885C68.9576 41.9327 69.9175 41.9768 70.8773 42.021C71.3772 41.84 71.8772 41.659 72.377 41.4779C72.3748 41.4779 72.3726 41.4779 72.3703 41.4779C70.9131 41.6148 69.4554 41.7516 67.9975 41.8885ZM287.478 41.5626C290.743 41.5203 294.005 41.4773 297.256 41.4338C297.288 41.3156 297.32 41.1975 297.351 41.0794C294.096 41.5269 292.779 41.0695 292.017 41.045C292.021 41.045 292.024 41.045 292.028 41.0449C289.582 40.9639 287.243 40.9067 284.945 40.7767C285.79 41.0387 286.634 41.3007 287.478 41.5626ZM276.328 40.8704C276.88 41.7014 277.603 41.7955 282.596 41.1861C282.398 41.0844 282.2 40.9827 282.001 40.881C279.413 40.9544 277.9 41.1536 278.353 40.7169C277.679 40.7681 277.004 40.8193 276.328 40.8704ZM327.305 40.8582C326.706 40.597 321.941 40.894 322.2 41.026C322.306 41.0787 328.479 41.3709 327.305 40.8582ZM741.298 29.2317C740.198 29.2447 739.067 29.2591 737.974 29.2704C739.426 29.0838 740.909 28.8939 742.354 28.7055C742.003 28.8809 741.651 29.0563 741.298 29.2317ZM753.255 27.2129C754.044 27.2623 751.565 28.1936 756.245 28.0483C752.844 28.3122 749.461 28.5677 746.03 28.8202C747.637 28.588 749.224 28.3557 750.792 28.1234C750.501 27.9281 750.21 27.7328 749.919 27.5375C751.014 27.4312 752.131 27.3227 753.255 27.2129ZM756.94 27.4964C755.061 27.0657 764.683 26.3087 765.624 26.3009C765.827 26.3019 766.815 26.6588 767.172 26.7241C765.73 26.8365 764.203 26.9539 762.79 27.0612C763.287 27.16 763.76 27.2604 764.275 27.3575C762.579 27.5335 760.902 27.7062 759.179 27.8805C759.906 27.6898 760.627 27.4992 761.344 27.3086C759.894 27.3712 758.373 27.4377 756.94 27.4964ZM718.232 30.1961C719.465 30.1366 720.689 30.0769 721.904 30.0171C721.649 29.8197 721.393 29.6222 721.137 29.4247C720.408 29.469 719.676 29.5132 718.94 29.5574C718.704 29.7703 718.468 29.9832 718.232 30.1961ZM743.084 28.3364C741.393 29.4778 736.363 27.5706 742.102 28.0164C742.677 28.062 743.244 28.2263 743.084 28.3364ZM769.235 26.1429C772.998 25.0967 772.243 26.8107 768.632 26.6104C768.452 26.5988 768.959 26.2199 769.235 26.1429ZM797.69 23.6662C798.004 23.6412 798.575 24.1255 801.464 23.333C801.96 23.3454 802.453 23.3578 802.943 23.3703C801.784 23.7444 792.163 24.8002 793.442 24.1456C794.925 24.0004 796.126 23.7985 797.69 23.6662ZM788.13 22.5629C786.666 22.7077 785.21 22.8498 783.774 22.9884C784.266 23.1138 784.755 23.2392 785.242 23.3646C784.542 23.4713 783.835 23.5779 783.122 23.6847C781.878 23.5021 780.589 23.3218 779.376 23.134C782.535 22.8235 785.659 22.508 788.845 22.1774C788.607 22.3059 788.369 22.4344 788.13 22.5629ZM749.457 25.195C752.236 25.2095 755.656 24.7421 760.226 24.4372C760.228 24.4376 760.231 24.4379 760.233 24.4383C760.46 24.4238 760.88 24.6227 761.606 24.5773C762.172 24.5506 774.498 23.3327 773.546 23.7927C768.806 24.5236 767.028 24.1255 765.943 25.0779C765.697 24.9138 765.45 24.7498 765.203 24.5857C760.616 24.6195 759.351 25.3444 756.807 25.7639C756.806 25.626 756.806 25.4882 756.806 25.3503C755.114 25.4603 753.398 25.5703 751.66 25.6803C751.911 25.7531 752.162 25.8258 752.413 25.8986C751.799 25.9425 751.187 25.986 750.593 26.028C749.107 25.7246 747.23 25.7604 749.457 25.195ZM794.734 22.1899C796.005 21.0361 809.103 20.4798 815.091 19.5726C812.001 20.5497 807.123 20.6286 803.687 20.9645C797.038 21.6102 801.671 21.5383 800.559 21.8176C800.04 21.9533 796.182 21.6517 794.734 22.1899ZM739.245 26.0769C742.596 25.9376 744.339 25.5777 747.276 25.7579C747.041 25.8506 746.805 25.9432 746.57 26.0359C745.54 26.0404 737.612 26.3533 739.245 26.0769ZM823.872 18.8296C817.435 19.2195 820.742 19.7765 817.306 19.4599C819.515 19.1641 821.668 18.8669 823.839 18.5586C823.85 18.649 823.861 18.7393 823.872 18.8296ZM378.41 36.4848C375.695 36.4863 372.731 36.3227 371.121 36.7305C372.946 36.7751 374.767 36.8195 376.586 36.8636C377.195 36.7373 377.803 36.6111 378.41 36.4848ZM455.059 31.7163C454.446 31.6313 452.023 31.9461 451.767 31.9499C451.291 31.957 451.419 31.8179 451.411 31.7822C448.293 31.8531 451.178 32.236 448.869 32.3624C448.462 32.3839 443.065 32.2513 440.873 32.2986C437.497 32.3722 434.099 32.3899 432.825 32.4141C430.699 32.4542 426.764 32.8243 423.245 32.8845C421.795 32.9088 421.285 32.6596 419.823 32.6838C410.541 32.8431 392.087 33.3922 383.854 33.3069C381.808 33.2864 379.848 32.9703 378.762 33.0077C377.908 33.1379 377.046 33.2681 376.196 33.3981C373.576 32.3221 372.71 33.3083 369.885 33.4359C368.089 33.5165 367.244 33.1979 367.002 33.2008C365.399 33.221 364.608 33.3829 363.346 33.4193C361.92 33.4597 359.915 33.3293 359.409 33.36C359.099 33.3802 360.096 33.8058 354.626 33.8414C349.032 33.8773 343.545 33.8727 337.867 33.8927C339.771 35.1869 341.394 34.2802 343.704 34.2155C344.324 34.1981 343.932 34.4086 344.472 34.3955C345.991 34.3595 348.913 34.1333 350.186 34.1729C351.556 34.2157 351.092 34.7005 352.825 34.5094C352.913 34.4996 352.634 34.303 353.042 34.2665C357.14 33.9052 358.458 34.2405 363.639 34.2071C367.091 34.1887 387.907 33.7977 388.607 33.9172C392.353 34.5784 370.399 34.7933 367.842 34.7566C366.943 34.7451 367.884 34.5175 367.064 34.4825C366.722 34.4686 363.576 34.9142 360.508 34.9743C356.808 35.0475 349.278 34.8212 345.736 34.8574C315.215 35.1722 285.093 35.0746 254.576 35.1831C253.927 35.1855 253.074 35.4394 250.956 35.4471C211.396 35.5856 170.393 35.4606 130.33 35.6152C121.61 35.6488 112.933 35.8908 104.125 35.7091C103.031 35.8927 101.937 36.0764 100.842 36.26C103.643 36.113 108.768 36.5238 109.234 36.5296C109.402 36.5313 110.462 36.3242 112.17 36.334C114.57 36.3471 115.63 36.5252 115.827 36.5251C116.439 36.5252 116.038 36.3352 116.623 36.3357C120.983 36.3407 124.353 36.284 128.347 36.2787C132.859 36.2729 135.159 36.6251 138.445 36.2325C138.818 36.3839 139.19 36.5353 139.563 36.6868C142.01 36.028 156.662 36.0834 162.572 36.1092C164.446 36.1176 164.117 36.3847 164.747 36.3837C165.148 36.3828 164.992 36.0341 169.887 36.095C172.35 36.1259 172.996 36.3791 174.23 36.3689C174.9 36.3629 174.791 36.1109 175.754 36.1092C181.322 36.0998 185.897 36.1731 191.344 36.2089C192.877 36.2186 192.894 36.429 193.237 36.4256C194.494 36.4136 196.707 36.0525 199.923 36.0463C205.213 36.0368 215.762 36.0118 220.089 36.1728C220.725 36.1967 221.252 36.4478 221.719 36.4429C222.426 36.4344 222.702 36.1702 222.827 36.1684C225.19 36.1572 223.769 36.4062 225.351 36.3422C226.203 36.3077 227.1 36.0046 229.09 35.9647C231.719 35.912 231.202 36.2703 232.299 36.2312C232.415 36.2253 232.449 35.9771 233.526 35.9656C237.61 35.9238 243.528 35.847 247.405 35.8342C248.516 35.8303 249.343 35.9944 250.891 35.9916C253.991 35.9874 271.758 35.8097 273.198 35.8983C273.352 35.9077 271.771 36.2805 274.293 36.2585C275.025 36.1029 275.756 35.9473 276.487 35.7917C277.711 36.0301 278.935 36.2684 280.157 36.5066C280.112 35.6645 287.282 35.5005 287.212 36.3621C287.994 36.3932 288.788 36.4242 289.576 36.4553C291.215 35.8518 292.31 36.0662 295.472 35.7001C295.966 35.8801 296.46 36.06 296.954 36.2399C297.077 36.1176 297.201 35.9953 297.324 35.8729C299.015 36.5234 301.772 35.8465 302.106 35.841C303.393 35.8193 304.378 35.9814 304.984 35.9726C307.259 35.9427 312.164 35.6835 314.802 35.7746C314.926 35.7793 314.806 36.0619 315.557 36.0922C316.914 36.1468 317.03 35.7335 318.855 36.2069C319.221 36.083 319.587 35.9591 319.954 35.8351C320.343 35.8956 320.733 35.9562 321.122 36.0167C323.418 35.97 325.71 35.9229 327.996 35.8756C325.918 36.3664 328.316 36.6173 330.572 36.2266C331.335 36.0941 330.655 35.8082 330.91 35.7625C331.233 35.7014 341.565 35.7769 342.23 35.9592C342.715 35.8641 343.2 35.7691 343.685 35.674C343.932 35.8552 344.178 36.0364 344.425 36.2176C344.692 36.1516 344.959 36.0856 345.226 36.0196C347.878 36.3226 354.863 35.5286 356.109 35.5767C356.781 35.6024 356.186 36.3875 359.399 36.2816C359.509 36.0664 359.619 35.8513 359.728 35.6362C360.464 35.5994 361.198 35.5627 361.932 35.5259C363.322 35.5334 365.35 35.8874 365.417 36.1407C365.85 35.9846 366.282 35.8286 366.714 35.6725C367.887 36.159 374.078 35.9284 376.551 35.5912C377.285 35.7341 378.02 35.877 378.753 36.0198C379.735 35.8287 380.716 35.6375 381.695 35.4462C383.967 35.3696 381.57 35.6951 382.054 35.7157C383.083 35.7583 388.282 35.1963 387.944 35.8361C388.653 35.8306 389.361 35.8251 390.069 35.8196C390.431 35.634 390.79 35.4484 391.158 35.2627C392.392 35.8775 394.517 35.6347 398.85 35.8175C399.212 35.6693 399.574 35.521 399.935 35.3727C401.274 35.5636 402.612 35.7543 403.946 35.9449C404.217 35.7028 404.488 35.4607 404.759 35.2186C405.341 35.1778 405.929 35.1368 406.514 35.0959C407.71 35.6182 409.836 35.0153 410.921 35.2237C412.504 35.5277 411.29 35.9262 408.351 36.0338C408.585 36.4218 417.303 36.1415 419.304 36.0879C419.169 36.0133 419.034 35.9388 418.899 35.8643C416.853 35.9493 414.804 36.034 412.747 36.1182C411.014 35.1574 416.597 35.3556 419.148 35.1979C419.383 35.1829 420.72 34.7952 423.312 34.7976C424.319 34.799 428.229 35.2926 428.971 35.3131C434.97 35.4829 430.538 34.7652 436.46 35.3665C435.22 34.862 438.627 35.2495 442.138 35.0995C442.736 35.0742 447.793 34.5794 448.153 34.5629C450.303 34.4637 447.97 34.9587 451.076 34.793C451.448 34.6664 451.819 34.5397 452.189 34.413C452.911 34.4023 453.632 34.3914 454.352 34.3805C458.735 35.3936 459.723 34.5825 461.295 34.4558C461.926 34.4046 461.118 34.6991 462.754 34.6136C463.37 34.5816 464.05 34.3365 465.702 34.2932C470.867 34.1577 472.608 35.1315 477.372 34.0048C478.105 34.1433 478.837 34.2818 479.569 34.4202C480.057 34.2301 480.545 34.0399 481.033 33.8498C484.792 34.3089 483.427 33.7939 484.778 33.7758C485.011 33.7726 485.259 33.7695 485.52 33.7666C489.339 33.7243 495.777 33.7163 496.376 34.1099C499.42 33.053 503.212 34.1008 504.419 34.0369C505.142 33.9008 505.865 33.7647 506.585 33.6285C507.438 33.7323 508.289 33.8361 509.139 33.9398C508.694 32.97 513.145 33.8378 513.576 33.8428C514.081 33.8471 520.856 33.407 523.369 33.3537C525.925 33.3007 530.332 33.4613 530.715 33.4524C531.164 33.4418 535.419 33.0729 538.817 32.9902C541.752 32.9254 559.203 32.8356 558.062 32.4263C556.925 32.337 555.316 32.2764 553.914 32.2577C549.508 32.215 523.976 32.6273 517.449 32.6909C506.926 32.8149 496.221 33.0258 485.509 33.176C482.841 33.2133 480.171 33.2467 477.507 33.274C476.73 33.282 476.608 33.0303 475.941 33.0362C474.932 33.0464 472.344 33.3445 471.371 33.3553C467.685 33.3955 463.156 33.4268 461.154 33.4518C456.696 33.5091 453.688 33.4016 450.309 33.4268C449.247 33.4353 443.929 33.8273 440.294 33.7445C439.632 33.6822 438.971 33.6199 438.308 33.5576C440.197 33.4486 445.079 33.1645 447.382 33.1061C450.806 33.0208 452.582 33.1998 453.838 33.1774C454.896 33.159 460.227 32.8426 462.709 32.7971C463.471 32.7831 463.632 33.0467 464.284 33.0354C467.835 32.972 472.411 32.8885 475.515 32.5737C474.268 32.681 482.086 32.7074 482.484 32.6985C483.182 32.6858 483.935 32.4232 485.356 32.3971C485.403 32.3963 485.449 32.3956 485.494 32.3951C488.12 32.364 487.852 32.8635 491.232 32.2874C492.088 32.4229 492.942 32.5584 493.794 32.6937C493.808 32.0008 504.638 32.7297 507.657 31.8204C507.759 31.7257 493.721 31.7391 492.594 31.7439C490.481 31.759 488.049 31.8031 485.485 31.8564C479.778 31.9758 473.289 32.1439 468.683 32.1352C466.672 32.1324 460.28 31.8124 459.791 31.8274C459.011 31.8515 459.719 32.0819 459.383 32.0957C452.581 32.3802 455.965 31.8426 455.059 31.7163ZM756.693 24.2177C754.648 24.3388 752.518 24.4633 750.454 24.5806C750.593 24.4181 750.731 24.2556 750.869 24.0931C751.814 24.0855 752.799 24.0745 753.754 24.0651C754.482 23.9215 755.205 23.7779 755.924 23.6343C756.181 23.8288 756.437 24.0232 756.693 24.2177ZM761.774 23.2009C763.553 22.9897 763.657 23.3035 764.084 23.2867C765.346 23.2382 766.413 23.0256 767.609 22.937C766.304 23.8046 763.259 23.6871 761.774 23.2009ZM724.535 25.466C724.949 25.477 727.75 26.1269 730.744 25.1698C733.078 25.2641 735.426 25.3549 737.714 25.4469C733.812 25.3344 728.382 26.0655 726.464 26.1698C725.73 26.21 725.573 25.967 724.984 25.9995C721.635 26.1871 718.408 26.9527 718.002 26.1401C721.231 26.1901 723.995 25.4544 724.535 25.466ZM744.814 24.4422C745.372 24.5789 745.927 24.7156 746.481 24.8523C744.491 24.99 742.623 25.1173 740.662 25.249C741.177 25.0373 741.69 24.8256 742.201 24.614C743.078 24.5568 743.947 24.4996 744.814 24.4422ZM595.392 31.1457C596.592 31.1076 597.788 31.0694 598.979 31.0309C598.91 30.906 597.545 30.9528 597.038 30.884C597.04 30.8839 597.042 30.8838 597.045 30.8837C596.479 30.8056 596.715 30.6339 595.689 30.5959C595.59 30.7792 595.491 30.9624 595.392 31.1457ZM99.3882 35.7149C97.3812 35.7072 78.8214 35.7138 80.4038 36.1769C81.1968 36.4084 87.5518 36.2039 89.4213 36.2068C91.946 36.2105 98.7468 36.7089 99.3882 35.7149ZM66.5256 35.6366C66.2056 36.0991 77.8046 36.1695 78.9356 36.0885C78.6949 36.0227 78.3241 35.876 78.0034 35.8429C76.441 35.6841 69.0284 35.7624 66.5256 35.6366ZM528.237 31.7178C529.178 31.9294 530.117 32.1409 531.054 32.3522C530.801 32.054 530.549 31.7559 530.296 31.4577C529.611 31.5444 528.924 31.6312 528.237 31.7178ZM437.557 33.7091C421.988 33.9062 406.407 34.0727 390.813 34.2156C392.19 34.0753 393.565 33.9348 394.937 33.7941C408.306 33.7005 422.7 33.6587 435.623 33.2893C436.269 33.4293 436.913 33.5692 437.557 33.7091ZM720.09 24.3659C716.049 24.6055 712.818 25.0197 708.416 24.9158C712.563 24.3331 714.583 24.7484 718.6 23.9995C718.602 23.9994 718.604 23.9993 718.606 23.9991C719.102 24.1214 719.597 24.2437 720.09 24.3659ZM631.06 28.6618C632.266 28.4012 633.489 28.1394 634.695 27.8779C633.24 27.9367 631.733 27.9969 630.305 28.0534C630.557 28.2562 630.809 28.459 631.06 28.6618ZM301.687 33.7549C297.548 34.2422 286.811 33.4563 283.453 34.03C283.234 34.0676 285.249 34.2938 281.996 34.7652C284.456 34.6603 286.187 34.5566 286.369 34.197C287.098 34.3151 287.827 34.4332 288.564 34.5512C289.781 34.4532 290.997 34.3551 292.212 34.2569C292.082 34.6147 292.178 34.5953 294.043 34.3412C294.893 34.4273 295.744 34.5133 296.593 34.5993C296.952 34.4462 297.311 34.293 297.67 34.1398C298.406 34.3475 299.141 34.5552 299.876 34.7628C302.735 34.5179 300.991 34.1173 301.687 33.7549ZM316.298 33.7581C315.647 33.6853 296.247 34.0507 305.071 34.7138C307.364 34.6782 309.652 34.6424 311.935 34.6062C310.038 33.4378 316.264 34.4559 316.771 34.4773C319.212 34.5777 322.352 34.2774 324.126 34.2806C325.654 34.2835 326.562 34.4892 327.635 34.4767C331.276 34.4347 337.075 34.3866 337.867 33.8927C335.018 33.9027 332.113 33.9174 329.172 33.9492C326.051 33.9827 323.298 33.5402 317.407 34.2084C315.959 34.1493 316.473 33.7772 316.298 33.7581ZM638.344 27.7785C638.196 28.2765 645.605 27.8497 645.638 27.6531C645.65 27.5391 643.24 27.6437 642.891 27.6151C642.888 27.6152 642.886 27.6153 642.884 27.6154C642.739 27.6026 643.463 27.3845 642.322 27.38C640.97 27.5145 639.667 27.6463 638.344 27.7785ZM128.248 34.5982C127.257 34.3248 104.446 34.4401 103.775 34.5715C103.593 34.6082 103.847 34.7287 103.775 34.7984C109.097 34.4072 116.655 34.8616 121.71 34.8878C123.118 34.8948 122.697 34.7002 122.777 34.6965C122.78 34.6965 122.784 34.6965 122.787 34.6965C123.586 34.6954 127.191 35.1686 128.248 34.5982ZM276.151 34.2873C277.122 34.3596 278.094 34.432 279.064 34.5042C279.309 34.3513 279.555 34.1984 279.8 34.0454C279.798 34.0454 279.795 34.0454 279.793 34.0455C278.58 34.1261 277.366 34.2067 276.151 34.2873ZM242.552 33.9181C242.789 34.0241 243.026 34.1302 243.263 34.2362C245.71 34.2428 248.154 34.2491 250.593 34.2551C250.348 34.3163 250.102 34.3775 249.856 34.4386C253.546 34.5866 255.067 34.2053 257.028 34.2519C257.026 34.2519 257.024 34.2519 257.022 34.2519C257.234 34.2574 257.492 34.4791 258.281 34.4836C260.093 34.4941 265.269 34.5562 265.892 34.3296C267.221 33.8465 256.782 34.115 254.856 34.0998C253.981 34.093 252.928 33.9021 252.395 33.8994C251.811 33.8973 251.017 34.1633 249.594 34.1603C249.178 34.1591 244.555 33.8658 242.552 33.9181ZM199.472 34.3557C200.227 34.5949 201.798 34.3587 202.375 34.3968C202.513 34.4058 201.441 34.6099 202.742 34.6673C203.109 34.529 203.477 34.3906 203.844 34.2522C202.388 34.2868 200.931 34.3213 199.472 34.3557ZM650.717 27.0233C650.482 26.9821 646.572 27.1695 646.374 27.2104C644.036 27.7509 652.177 27.3532 650.717 27.0233ZM750.593 20.9501C748.766 20.4573 770.348 19.4875 772.457 19.2571C772.401 19.6658 767.172 19.674 769.938 20.0085C767.369 19.9107 760.291 20.6109 758.599 20.6453C757.573 20.6679 757.279 20.3416 757.133 20.3413C756.563 20.3455 751.25 21.1307 750.593 20.9501ZM790.276 18.0147C788.276 18.1192 786.128 18.2326 784.126 18.3295C786.509 18.0775 788.957 17.8146 791.358 17.5499C790.999 17.7048 790.621 17.8613 790.276 18.0147ZM792.854 17.5959C792.754 17.2177 799.698 16.8614 801.542 16.5836C799.522 17.4492 796.013 17.1601 792.854 17.5959ZM676.938 24.8033C673.739 24.7026 672.427 25.9539 676.274 25.249C676.389 25.2263 677.072 24.8104 676.938 24.8033ZM300.688 32.0909C300.145 32.0867 293.329 31.7377 292.932 31.93C291.686 32.5442 296.164 32.2776 297.661 32.499C300.077 32.858 296.533 33.1836 302.418 32.9273C302.178 33.0503 301.938 33.1733 301.698 33.2962C305.15 33.3176 304.022 32.4809 304.641 32.3691C304.832 32.3352 306.998 32.3939 307.388 32.3378C312.269 31.6312 301.173 32.0945 300.688 32.0909ZM597.429 27.9794C591.037 27.8363 593.721 28.2721 587.221 28.4512C586.989 28.7279 596.616 28.2435 597.429 27.9794ZM363.025 32.1461C356.431 32.3067 350.952 32 344.792 32.5158C345.181 33.2389 364.749 32.3205 363.025 32.1461ZM51.9233 32.3497C77.694 33.6348 107.391 33.2002 134.835 33.1528C137.826 33.1481 138.112 33.4346 139.194 33.4023C139.902 33.3814 139.778 33.1505 140.719 33.1484C174.75 33.0743 207.358 32.711 239.945 32.7429C241.993 32.7457 252.009 33.207 254.127 32.4506C255.738 31.8771 248.573 32.3459 247.372 32.3448C246.473 32.3443 246.434 32.0777 245.833 32.0788C245.197 32.0801 245.723 32.2605 244.984 32.2658C241.843 32.2894 238.444 32.2293 235.617 32.2537C207.881 32.4901 180.893 32.5004 153.306 32.51C149.965 32.5115 150.651 32.2969 150.483 32.2962C150.481 32.2967 150.478 32.2972 150.476 32.2978C132.572 32.2998 112.121 32.795 93.1526 32.6204C79.7924 32.4795 66.4391 32.3359 53.0844 32.1909C52.6974 32.2438 52.3103 32.2968 51.9233 32.3497ZM314.834 32.7641C313.166 31.968 312.807 32.7833 306.818 32.4886C306.331 32.6289 305.844 32.7692 305.357 32.9095C308.529 32.8616 311.691 32.8131 314.844 32.764C314.841 32.764 314.838 32.764 314.834 32.7641ZM275.347 32.6754C274.307 31.5921 260.98 32.4177 254.943 32.2317C253.833 32.7828 262.602 32.5037 264.664 32.5525C265.703 32.5768 271.185 33.1164 275.405 32.7862C275.385 32.7493 275.366 32.7123 275.347 32.6754ZM727.922 20.8616C726.956 20.9542 725.984 21.0468 725.005 21.1393C727.479 21.1066 729.843 21.078 732.315 21.0397C728.455 21.2104 724.511 21.379 720.687 21.5333C721.394 21.2641 722.098 20.9948 722.798 20.7255C724.471 20.7744 726.232 20.8165 727.922 20.8616ZM715.347 21.7454C722.143 21.2548 715.063 22.2843 713.382 22.1122C712.361 22.0106 714.664 21.7951 715.347 21.7454ZM697.686 22.3573C700.783 21.7936 707.239 21.4025 704.995 22.322C701.517 22.1454 699.391 22.5726 694.379 22.6277C695.102 22.437 695.823 22.2462 696.541 22.0554C696.544 22.0552 696.547 22.0551 696.551 22.0549C696.93 22.1557 697.308 22.2565 697.686 22.3573ZM718.424 21.0818C722.902 21.2705 710.026 21.8806 714.05 21.3418C714.233 21.3178 718.234 21.0763 718.424 21.0818ZM80.4022 31.5242C79.8652 31.7832 83.2915 31.7772 84.4326 31.7941C89.3795 31.8692 95.7022 31.7537 100.847 31.7866C100.459 31.7016 100.072 31.6167 99.6849 31.5317C93.2583 31.5298 86.8339 31.5273 80.4022 31.5242ZM116.918 31.778C120.452 31.7754 123.982 31.7726 127.508 31.7695C127.837 31.7692 129.378 31.5458 128.232 31.4928C124.465 31.5881 120.694 31.6832 116.918 31.778ZM337.111 31.067C334.4 30.9413 342.198 30.143 341.849 30.941C340.272 30.9831 338.693 31.0251 337.111 31.067ZM362.277 30.5559C360.584 30.6457 358.898 30.7353 357.203 30.8246C357.2 30.7331 357.197 30.6416 357.194 30.5501C358.892 30.5523 360.581 30.5542 362.277 30.5559ZM66.5246 31.3457C68.3242 31.6584 72.6152 31.6091 75.2893 31.6147C73.4475 31.3462 69.0552 31.4797 66.5246 31.3457ZM296.561 30.9941C296.788 31.2068 285.999 31.2073 289.733 30.8131C292.013 30.8737 294.289 30.934 296.561 30.9941ZM274.686 30.7836C277.001 30.7267 278.79 30.7918 278.317 31.1292C277.091 31.1204 275.865 31.1116 274.637 31.1028C274.653 30.9964 274.67 30.89 274.686 30.7836ZM685.582 22.3574C681.751 22.5842 677.774 22.8128 673.952 23.0285C674.09 22.9301 674.229 22.8318 674.368 22.7334C678.066 22.5238 681.884 22.3036 685.582 22.0842C685.582 22.1752 685.582 22.2663 685.582 22.3574ZM64.3236 30.5242C61.653 30.5845 58.9813 30.6448 56.3086 30.705C58.9835 30.7659 61.6575 30.8268 64.3303 30.8876C64.3303 30.7659 64.3303 30.6443 64.3303 30.5226C64.328 30.5231 64.3258 30.5237 64.3236 30.5242ZM738.687 18.0635C726.835 18.4149 741.923 16.9764 745.061 17.3804C745.065 17.3796 745.068 17.3789 745.071 17.3781C745.352 17.4143 744.785 17.7221 745.253 17.7982C744.003 17.763 742.844 17.7207 741.625 17.6818C740.539 17.9064 739.444 18.131 738.34 18.3554C737.969 18.3207 737.596 18.2861 737.238 18.2503C737.705 18.1893 738.204 18.1259 738.687 18.0635ZM786.429 14.1793C797.132 13.2655 786.222 14.9353 780.89 14.8497C780.952 14.7227 785.388 14.2683 786.429 14.1793ZM758.336 16.5896C756.601 16.7792 754.989 16.9578 753.283 17.1417C753.06 17.0809 752.838 17.02 752.615 16.9591C753.917 16.7893 755.205 16.6194 756.48 16.4496C757.076 16.4981 757.718 16.5431 758.336 16.5896ZM702.596 18.9819C699.849 19.0491 696.402 20.0966 705.185 19.382C705.175 19.2909 705.166 19.1998 705.156 19.1087C704.809 19.143 703.787 19.2862 703.73 19.2825C703.568 19.2687 703.742 18.953 702.596 18.9819ZM805.995 9.89468C806.308 9.82651 806.318 8.85904 809.618 9.51311C810.575 9.34995 811.489 9.19009 812.446 9.02407C812.72 9.20807 812.992 9.39205 813.264 9.57602C809.553 9.8169 809.213 10.2799 808.94 10.3192C807.701 10.4905 808.587 10.1745 807.8 10.2542C805.79 10.4603 801.125 11.0771 803.168 10.237C803.879 9.93855 805.707 9.95977 805.995 9.89468ZM798.703 10.0724C799.153 10.1097 797.754 10.5289 798.096 10.576C798.367 10.6217 802.901 10.4639 801.73 11.0587C800.996 11.1114 800.255 11.1642 799.507 11.217C799.242 11.1116 798.992 11.0047 798.733 10.8985C798.046 11.0863 797.353 11.2742 796.652 11.4622C795.417 11.2564 792.808 11.0817 795.834 10.5325C794.696 10.6681 793.628 10.7956 792.518 10.9259C791.957 11.1327 791.393 11.3397 790.824 11.5466C791.108 11.2844 791.391 11.0221 791.673 10.7599C794.006 10.5376 796.388 10.3051 798.703 10.0724ZM832.951 6.2497C832.836 6.38816 832.72 6.52663 832.604 6.66511C836.601 5.90464 842.88 4.87439 839.406 6.16133C833.986 7.02102 828.481 7.81322 823.006 8.54272C822.636 8.49554 822.264 8.44836 821.89 8.40119C826.023 8.25343 824.56 6.92242 828.187 6.89482C828.795 6.88862 827.126 7.63873 830.842 6.81169C830.691 6.70852 830.539 6.60533 830.387 6.50214C831.255 6.41789 832.11 6.33374 832.951 6.2497ZM867.452 0.642552C860.569 1.81928 868.024 -0.0962739 869.365 0.00383282C869.362 0.00427151 869.36 0.00470829 869.358 0.00514698C873.029 0.296386 865.461 1.32117 865.017 1.4064C864.413 1.53236 863.134 2.5252 859.655 2.10412C862.253 1.63451 864.852 1.14518 867.452 0.642552ZM845.049 4.47973C845.63 4.36405 845.335 4.59644 845.586 4.55394C845.588 4.55359 845.591 4.55324 845.593 4.5529C849.275 3.95264 857.944 2.25157 859.004 2.6416C856.305 3.23501 844.156 5.38677 843.352 5.0687C843.924 4.87228 844.475 4.67827 845.049 4.47973ZM819.082 8.44315C816.76 8.32799 821.911 7.67552 823.242 7.6876C823.502 7.69438 821.507 8.56032 819.082 8.44315ZM642.368 19.5194C637.251 19.964 643.997 19.913 641.681 20.3709C642.659 20.2993 643.634 20.2276 644.605 20.1558C643.861 19.9437 643.116 19.7316 642.368 19.5194ZM410.418 24.465C409.229 24.436 409.794 24.6498 409.691 24.6543C408.91 24.657 408.171 24.4859 407.871 24.5083C402.317 24.9328 406.015 25.0764 406.072 25.1189C406.192 25.3355 404.733 25.6068 406.761 25.8332C407.988 25.7422 409.214 25.6511 410.437 25.5598C411.046 25.674 411.655 25.7881 412.263 25.9021C414.686 25.614 411.51 25.5797 411.145 25.239C411.004 25.1051 413.288 24.9165 410.418 24.465ZM633.235 19.1637C632.422 19.5796 630.4 20.1435 632.418 20.4479C632.42 20.4478 632.423 20.4478 632.425 20.4477C632.799 20.5032 634.303 20.4814 634.766 20.5615C638.017 19.9188 636.752 19.4436 633.235 19.1637ZM432.314 23.5098C434.297 23.573 436.28 23.6358 438.254 23.6982C438.223 23.9282 438.193 24.1582 438.162 24.3882C437.106 24.3408 436.047 24.2932 434.987 24.2455C434.616 24.3552 434.246 24.4649 433.876 24.5746C435.196 24.8189 436.514 25.063 437.829 25.3069C439.408 25.1938 440.983 25.0805 442.554 24.9669C441.83 24.8559 441.104 24.7449 440.378 24.6338C444.227 24.4464 443.384 25.0165 446.576 25.1842C447.673 24.9557 448.768 24.7271 449.861 24.4984C451.452 24.6887 453.038 24.8787 454.62 25.0685C457.269 24.9283 457.497 24.7619 455.712 24.5456C457.028 24.2471 458.457 24.6629 460.059 24.5244C460.191 24.5131 459.937 24.2549 460.054 24.2499C468.324 23.9422 467.866 24.6357 469.183 24.6438C470.106 24.6488 473.785 24.1219 473.853 23.9621C473.916 23.7471 466.168 23.0387 478.281 22.8077C471.99 22.3362 464.974 23.0427 469.547 23.822C467.6 23.7695 458.845 24.1223 458.307 24.1041C457.502 24.0779 457.78 23.7494 456.771 23.7565C456.173 23.7609 454.615 24.5267 449.853 23.9494C449.248 24.0799 448.641 24.2105 448.034 24.341C447.462 24.2493 446.89 24.1576 446.317 24.0659C447.489 23.6925 448.658 23.3189 449.825 22.9452C445.156 23.4013 441.369 22.7263 438.545 23.3784C436.104 23.3404 434.911 23.2857 435.959 22.9581C435.224 22.968 434.489 22.9779 433.753 22.9876C433.274 23.1617 432.792 23.3358 432.314 23.5098ZM618.324 20.29C615.902 20.0244 615.052 20.8237 615.432 20.8533C617.568 21.0136 619.582 20.4281 618.324 20.29ZM414.817 24.8217C417.478 24.9881 420.157 25.1535 422.845 25.318C422.842 25.0752 422.839 24.8324 422.836 24.5897C420.151 24.668 417.475 24.7453 414.817 24.8217ZM643.093 18.9426C643.348 19.114 643.602 19.2854 643.856 19.4568C646.773 18.6685 649.638 19.4989 651.116 19.2371C651.43 19.1803 650.778 18.8873 650.171 18.8447C649.796 18.8189 643.627 18.8597 643.093 18.9426ZM764.581 12.0874C763.497 12.2933 762.409 12.4987 761.353 12.701C761.397 12.4923 761.441 12.2837 761.485 12.0751C762.016 11.9968 762.524 11.92 763.071 11.8401C763.577 11.9225 764.08 12.005 764.581 12.0874ZM752.259 13.3286C750.276 13.4544 748.407 13.5698 746.45 13.6894C753.805 12.9849 747.709 13.3227 752.217 12.735C752.231 12.9329 752.245 13.1307 752.259 13.3286ZM732.628 14.2501C732.86 14.1127 733.091 13.9753 733.322 13.8379C735.274 13.7111 737.147 13.5878 739.128 13.4554C737.858 13.1151 736.61 12.7726 735.371 12.4288C734.666 12.474 733.958 12.5191 733.246 12.5643C733.041 13.1262 732.835 13.6882 732.628 14.2501ZM357.848 24.0639C356.676 24.0662 352.586 24.4694 352.761 24.6044C354.465 24.7587 356.165 24.9128 357.863 25.0667C357.869 24.8233 357.874 24.5799 357.88 24.3366C358.121 24.4557 358.362 24.5749 358.602 24.6941C359.566 24.5952 360.528 24.4963 361.489 24.3973C361.973 24.6059 362.468 24.8144 362.958 25.0229C363.448 24.776 363.938 24.5291 364.427 24.2821C359.73 23.8913 359.926 24.3195 358.95 24.3231C358.459 24.325 358.147 24.1769 357.972 24.1025C357.931 24.0897 357.889 24.0768 357.848 24.0639ZM416.639 23.2511C411.093 23.2567 407.885 23.9334 403.845 23.4423C406.464 24.5571 423.142 23.1833 429.036 24.0556C429.643 23.8648 430.249 23.6739 430.854 23.4829C427.668 23.6875 425.441 23.3386 423.875 23.3039C422.63 23.2764 422.762 23.4665 422.667 23.465C422.663 23.465 422.658 23.4651 422.654 23.4652C419.738 23.4224 418.819 23.2489 416.639 23.2511ZM647.188 17.8728C645.692 17.6478 643.069 17.7875 643.056 18.2104C644.524 18.2709 645.985 18.3311 647.437 18.3911C647.135 18.2959 647.444 17.9114 647.188 17.8728ZM730.279 13.2197C729.128 13.1559 726.391 13.4488 727.597 13.7381C727.817 13.7893 730.514 13.3613 728.964 14.1191C731.595 13.9414 730.956 13.2553 730.279 13.2197ZM511.846 22.5617C512.836 22.5282 513.824 22.4945 514.809 22.4607C515.035 22.2854 515.261 22.1101 515.486 21.9347C514.277 22.1439 513.063 22.3529 511.846 22.5617ZM659.774 17.0244C661.129 17.7972 663.334 16.8842 665.795 17.4551C666.697 17.4181 667.572 17.3822 668.498 17.3436C668.501 17.3435 668.503 17.3434 668.505 17.3433C668.519 17.1149 668.533 16.8866 668.547 16.6582C665.621 16.7832 662.735 16.9034 659.774 17.0244ZM450.563 23.2533C451.171 23.3501 451.779 23.4469 452.386 23.5436C453.463 23.4042 454.537 23.2648 455.61 23.1251C455.027 23.0457 454.444 22.9662 453.861 22.8866C452.763 23.009 451.664 23.1312 450.563 23.2533ZM675.658 16.2026C672.519 16.2513 671.367 17.0325 675.384 16.8388C677.068 16.7562 678.99 16.1478 675.658 16.2026ZM297.279 24.7348C298.364 24.791 299.449 24.8471 300.532 24.9031C300.9 24.7488 301.268 24.5945 301.636 24.4401C300.186 24.5385 298.733 24.6367 297.279 24.7348ZM745.261 12.3068C745.143 12.4677 745.026 12.6285 744.908 12.7893C743.916 12.827 742.983 12.86 742.018 12.8948C742.249 12.7275 742.479 12.5602 742.709 12.3929C743.546 12.3655 744.398 12.3368 745.261 12.3068ZM304.582 24.7889C305.454 24.8131 306.324 24.8373 307.195 24.8615C307.779 24.7841 308.363 24.7067 308.946 24.6293C308.132 24.5605 307.318 24.4916 306.503 24.4227C305.863 24.5448 305.223 24.6668 304.582 24.7889ZM705.636 14.6933C704.423 14.579 699.558 15.4215 703.97 15.3212C706.764 15.2566 705.818 14.7108 705.636 14.6933ZM712.178 14.1346C707.499 14.0558 711.133 15.6236 716.539 14.1523C711.024 14.6369 712.447 14.1393 712.178 14.1346ZM752.773 10.587C752.89 10.5795 753.006 10.8266 753.933 10.7689C757.22 10.5647 761.679 10.3313 764.072 10.1625C766.227 10.0115 770.06 9.65725 774.036 9.29644C780.757 8.69181 788.151 8.0252 789.423 8.37078C789.856 8.48702 788.933 9.03491 789.105 9.04321C789.592 9.06679 792.559 8.56944 792.034 8.95931C789.109 9.22638 786.274 9.47638 783.394 9.72321C784.075 9.42313 784.738 9.12428 785.445 8.82111C778.326 9.56849 780.608 9.35124 778.636 10.0442C777.419 9.94292 776.187 9.84176 774.938 9.74073C774.654 9.78578 774.369 9.83083 774.083 9.87589C771.793 10.245 769.354 10.6219 767.048 10.9843C767.635 10.7862 768.199 10.5896 768.8 10.39C764.819 10.4203 765.935 10.517 763.765 11.0534C763.749 10.9024 763.733 10.7514 763.717 10.6004C759.89 11.2635 759.121 10.862 758.268 10.9204C756.498 11.0415 754.473 12.9975 747.749 11.6788C745.034 12.7301 744.941 10.9828 743.38 11.9812C738.63 11.3344 747.602 11.0776 751.828 10.8028C751.831 10.8027 751.833 10.8025 751.835 10.8023C752.157 10.782 751.636 10.6561 752.773 10.587ZM728.648 13.1088C731.462 12.1424 720.144 12.7758 723.966 13.6787C724.531 13.6809 725.093 13.683 725.654 13.6851C726.661 13.4929 727.661 13.3007 728.654 13.1084C728.652 13.1086 728.65 13.1087 728.648 13.1088ZM622.596 17.8449C612.17 18.5628 618.127 18.7931 621.629 18.2168C622.34 18.1018 622.726 17.9664 622.596 17.8449ZM408.678 22.7376C408.526 22.834 408.373 22.9305 408.221 23.0269C411.752 22.8988 418.522 23.1833 418.418 22.5458C415.186 22.6107 411.94 22.6747 408.678 22.7376ZM436.474 21.9751C435.718 21.947 432.616 21.8974 432.993 22.1312C434.34 22.2827 435.685 22.4339 437.026 22.585C437.649 22.4707 438.27 22.3564 438.891 22.2421C438.022 22.2181 436.679 21.9824 436.474 21.9751Z" fill="#0F3255"/>
</svg>
