<svg width="442" height="442" viewBox="0 0 442 442" fill="none" xmlns="http://www.w3.org/2000/svg">
<path d="M364.699 130.415V106.299H358.185V86.1383H333.372V56.9821H329.65V43.9548H278.353V35.7353H254.77C251.033 31.4865 237.303 28.334 220.929 28.334C204.554 28.334 190.824 31.4867 187.088 35.7353H163.504V43.9548H112.208V56.9821H108.486V86.1383H83.672V106.299H77.1584V130.415H57.54V137.743L61.6693 142.745L73.4691 156.993L73.3566 159.722L73.3152 160.728L70.6315 225.806H65.536V228.486L70.3212 233.293H70.3228L62.8905 413.525H73.8324H79.1745H88.4796H138.107H143.07H154.081H155.709H170.365H179.67V258.331L181.173 252.284V249.903L180.747 248.966C184.984 231.693 201.359 218.815 220.929 218.815C240.498 218.815 256.873 231.693 261.11 248.966L260.684 249.903V252.284L262.187 258.331V413.525H271.492H286.148H287.776H298.787H303.75H353.377H362.682H368.025H378.967L371.534 233.293H371.536L376.321 228.486V225.806H371.226L368.535 160.556L368.501 159.722L368.388 156.993L380.188 142.745L384.317 137.743V130.415H364.699Z" fill="#FDD9CC"/>
<path d="M170.365 236.541V236.552L171.698 231.745V231.742L170.365 236.541Z" fill="#F15D2B"/>
<path d="M262.187 258.332V413.525H271.492V236.552L262.187 258.332Z" fill="#F15D2B"/>
<path d="M170.365 236.552V413.525H179.671V258.332L170.365 236.552Z" fill="#F15D2B"/>
<path d="M271.492 236.552V236.541L270.16 231.743V231.745L271.492 236.552Z" fill="#F15D2B"/>
<path d="M270.159 229.067V229.061H271.389C270.802 219.363 267.481 210.407 262.187 202.945C261.002 201.275 259.73 199.671 258.357 198.159C257.269 196.962 256.124 195.817 254.927 194.729C253.729 193.641 252.479 192.609 251.182 191.639C250.533 191.153 249.872 190.683 249.199 190.229C247.854 189.32 246.463 188.475 245.03 187.696C244.314 187.307 243.587 186.935 242.85 186.58C236.218 183.384 228.783 181.594 220.929 181.594C214.82 181.594 208.964 182.677 203.543 184.662C198.897 186.363 194.569 188.727 190.676 191.639C189.378 192.61 188.128 193.641 186.931 194.729C186.332 195.273 185.747 195.831 185.175 196.403C184.031 197.547 182.942 198.745 181.911 199.994C175.312 207.99 171.134 218.052 170.469 229.062H171.698V229.067L180.747 248.966C184.985 231.693 201.36 218.815 220.929 218.815C240.498 218.815 256.873 231.693 261.11 248.966L270.159 229.067Z" fill="#F15D2B"/>
<path d="M154.082 163.914L155.71 165.077V161.239L154.082 159.722H73.357L73.3156 160.728L73.1843 163.914H154.082Z" fill="#FF9D7D"/>
<path d="M287.776 159.722L286.148 161.239V165.077L287.776 163.914H368.674L368.535 160.556L368.501 159.722H287.776Z" fill="#FF9D7D"/>
<path d="M155.709 229.061H154.081H143.147L142.316 229.759L142.324 231.741H171.697H171.697V229.066V229.061H170.468H155.709Z" fill="#FCF0E2"/>
<path d="M271.389 229.061H270.16V229.066V231.741H270.16H299.534L299.541 229.759L298.71 229.061H287.777H286.148H271.389Z" fill="#FCF0E2"/>
<path d="M303.75 225.806H299.556H298.036L298.025 228.486H376.322V225.806H371.226H303.75Z" fill="#FCF0E2"/>
<path d="M143.833 228.486L143.822 225.806H142.302H138.108H70.6319H65.5364V228.486H143.833Z" fill="#FCF0E2"/>
<path d="M298.025 296.703H366.458V294.022H303.75H299.277H298.036L298.025 296.703Z" fill="#FCF0E2"/>
<path d="M154.082 163.914V229.061H155.71V165.077L154.082 163.914Z" fill="#FFF0EB"/>
<path d="M138.107 207.726V225.806H142.302L142.25 213.231L138.107 207.726Z" fill="#FFF0EB"/>
<path d="M117.297 203.33C127.027 201.119 133.122 191.439 130.911 181.709C128.699 171.979 119.019 165.884 109.289 168.095C99.5593 170.306 93.4642 179.986 95.6754 189.716C97.8866 199.446 107.567 205.542 117.297 203.33Z" fill="#FFF0EB"/>
<path d="M113.827 201.959C123.122 201.665 130.42 193.892 130.126 184.597C129.832 175.301 122.058 168.004 112.763 168.298C103.467 168.592 96.1704 176.366 96.4642 185.661C96.7581 194.956 104.532 202.253 113.827 201.959Z" fill="#FDD9CC"/>
<path d="M120.736 198.943C128.505 194.83 131.469 185.198 127.356 177.429C123.243 169.661 113.611 166.697 105.842 170.81C98.0738 174.923 95.1102 184.555 99.2231 192.323C103.336 200.092 112.968 203.056 120.736 198.943Z" fill="#FFF0EB"/>
<path d="M286.148 165.077V229.061H287.776V163.914L286.148 165.077Z" fill="#FFF0EB"/>
<path d="M299.607 213.231L299.556 225.806H303.751V207.726L299.607 213.231Z" fill="#FFF0EB"/>
<path d="M220.929 137.743H57.54L61.6693 142.744L73.4691 156.993L74.0567 142.744H154.081V142.745V159.721L155.71 161.238V142.745V142.744H170.365H220.929H271.492H286.148V142.745V161.238L287.776 159.721V142.745V142.744H367.801L368.389 156.993L380.188 142.744L384.318 137.743H220.929Z" fill="#FFF0EB"/>
<path d="M341.336 198.5C348.392 191.444 348.392 180.004 341.336 172.948C334.28 165.893 322.841 165.893 315.785 172.948C308.729 180.004 308.729 191.444 315.785 198.5C322.841 205.556 334.28 205.556 341.336 198.5Z" fill="#FFF0EB"/>
<path d="M330.205 201.892C339.459 200.976 346.219 192.731 345.303 183.477C344.386 174.222 336.142 167.463 326.888 168.379C317.633 169.295 310.874 177.54 311.79 186.794C312.706 196.048 320.95 202.808 330.205 201.892Z" fill="#FDD9CC"/>
<path d="M339.814 196.118C346.03 189.902 346.03 179.825 339.814 173.61C333.599 167.394 323.522 167.394 317.306 173.61C311.091 179.825 311.091 189.902 317.306 196.118C323.522 202.333 333.599 202.333 339.814 196.118Z" fill="#FFF0EB"/>
<path d="M338.811 194.254C344.472 188.593 344.472 179.414 338.811 173.753C333.15 168.092 323.971 168.092 318.31 173.753C312.649 179.414 312.649 188.593 318.31 194.254C323.971 199.915 333.15 199.915 338.811 194.254Z" fill="#FDD9CC"/>
<path d="M168.464 79.2265C172.697 74.9929 172.697 68.1287 168.464 63.8951C164.23 59.6614 157.366 59.6614 153.132 63.8951C148.899 68.1287 148.899 74.9929 153.132 79.2265C157.366 83.4602 164.23 83.4602 168.464 79.2265Z" fill="#FFF0EB"/>
<path d="M170.522 72.6538C171.449 67.28 167.845 62.1718 162.472 61.2442C157.098 60.3166 151.99 63.9209 151.062 69.2946C150.135 74.6684 153.739 79.7766 159.112 80.7042C164.486 81.6318 169.594 78.0275 170.522 72.6538Z" fill="#FDD9CC"/>
<path d="M286.769 80.7947C291.863 77.6471 293.44 70.9665 290.293 65.873C287.145 60.7796 280.464 59.2021 275.371 62.3497C270.277 65.4972 268.7 72.1779 271.848 77.2713C274.995 82.3648 281.676 83.9422 286.769 80.7947Z" fill="#FFF0EB"/>
<path d="M289.453 76.149C292.32 71.5098 290.883 65.425 286.244 62.5582C281.605 59.6913 275.52 61.1281 272.653 65.7673C269.786 70.4064 271.223 76.4913 275.862 79.3581C280.502 82.2249 286.586 80.7882 289.453 76.149Z" fill="#FDD9CC"/>
<path d="M171.698 231.742V231.742H142.325L142.316 229.76L143.148 229.061L143.833 228.486H65.5364L70.3215 233.293H70.3232H138.108V294.022H142.581L142.346 236.449L142.346 236.549H154.082V413.525H155.71V236.549H170.363L170.366 236.541L171.698 231.742Z" fill="#FFF0EB"/>
<path d="M170.365 236.553L179.671 258.332L181.173 252.284L171.698 231.745L170.365 236.553Z" fill="#FFF0EB"/>
<path d="M260.684 252.284L262.187 258.332L271.492 236.553L270.16 231.745L260.684 252.284Z" fill="#FFF0EB"/>
<path d="M298.71 229.061L299.541 229.76L299.533 231.742H270.16V231.743L271.492 236.541L271.494 236.549H286.148V413.525H287.776V236.549H299.511L299.513 236.144L299.276 294.022H303.75V233.293V233.293H371.535H371.536L376.322 228.486H298.025L298.71 229.061Z" fill="#FFF0EB"/>
<path d="M299.262 297.741L298.788 413.525H303.75V301.51V301.51H361.977L366.458 296.703H298.025L299.262 297.741Z" fill="#FFF0EB"/>
<path d="M75.3997 296.703L79.8811 301.51H138.107V301.51V413.525H143.07L142.596 297.741L143.833 296.703H75.3997Z" fill="#FFF0EB"/>
<path d="M123.542 194.252C129.203 188.591 129.203 179.413 123.542 173.752C117.881 168.091 108.702 168.091 103.041 173.752C97.3802 179.413 97.3802 188.591 103.041 194.252C108.702 199.914 117.881 199.914 123.542 194.252Z" fill="#FDD9CC"/>
<path d="M75.3997 294.022V296.703H143.833L143.822 294.022H142.581H138.107H75.3997Z" fill="#FCF0E2"/>
<path d="M344.48 106.689H97.378C97.1628 106.689 96.9883 106.515 96.9883 106.299C96.9883 106.084 97.1628 105.91 97.378 105.91H344.48C344.695 105.91 344.87 106.084 344.87 106.299C344.87 106.515 344.695 106.689 344.48 106.689Z" fill="#FFC4B0"/>
<path d="M358.186 130.805H83.6724C83.4573 130.805 83.2827 130.631 83.2827 130.415C83.2827 130.2 83.4573 130.026 83.6724 130.026H358.186C358.401 130.026 358.576 130.2 358.576 130.415C358.576 130.631 358.401 130.805 358.186 130.805Z" fill="#FFC4B0"/>
<path d="M324.255 86.528H117.603C117.388 86.528 117.213 86.3534 117.213 86.1382C117.213 85.9231 117.388 85.7485 117.603 85.7485H324.255C324.47 85.7485 324.645 85.9231 324.645 86.1382C324.645 86.3534 324.47 86.528 324.255 86.528Z" fill="#FFC4B0"/>
<path d="M313.39 57.3717H128.468C128.253 57.3717 128.079 57.1972 128.079 56.982C128.079 56.7668 128.253 56.5923 128.468 56.5923H313.39C313.605 56.5923 313.779 56.7668 313.779 56.982C313.779 57.1972 313.605 57.3717 313.39 57.3717Z" fill="#FFC4B0"/>
<path d="M269.373 44.3444H172.484C172.269 44.3444 172.094 44.1698 172.094 43.9547C172.094 43.7395 172.269 43.5649 172.484 43.5649H269.373C269.588 43.5649 269.763 43.7395 269.763 43.9547C269.763 44.17 269.588 44.3444 269.373 44.3444Z" fill="#FFC4B0"/>
<path d="M347.96 208.115H307.783C307.568 208.115 307.393 207.941 307.393 207.726C307.393 207.51 307.568 207.336 307.783 207.336H347.96C348.176 207.336 348.35 207.51 348.35 207.726C348.35 207.941 348.176 208.115 347.96 208.115Z" fill="#FFC4B0"/>
<path d="M358.238 224.178C358.032 224.178 357.86 224.016 357.849 223.808L357.021 207.746C357.009 207.531 357.175 207.348 357.389 207.336C357.605 207.327 357.788 207.49 357.799 207.705L358.628 223.767C358.639 223.983 358.473 224.166 358.259 224.177L358.238 224.178Z" fill="#FFC4B0"/>
<path d="M361.759 292.45C361.553 292.45 361.382 292.289 361.371 292.081L358.467 235.791C358.456 235.576 358.621 235.392 358.836 235.381C359.051 235.367 359.234 235.535 359.246 235.75L362.149 292.04C362.16 292.255 361.995 292.438 361.78 292.45L361.759 292.45Z" fill="#FFC4B0"/>
<path d="M367.803 409.616C367.597 409.616 367.425 409.455 367.414 409.247L361.989 304.065C361.978 303.849 362.143 303.666 362.357 303.655C362.582 303.639 362.756 303.809 362.767 304.024L368.193 409.206C368.204 409.421 368.038 409.604 367.824 409.616L367.803 409.616Z" fill="#FFC4B0"/>
<path d="M307.783 292.45C307.568 292.45 307.393 292.276 307.393 292.06V235.77C307.393 235.555 307.568 235.381 307.783 235.381C307.998 235.381 308.172 235.555 308.172 235.77V292.06C308.172 292.276 307.998 292.45 307.783 292.45Z" fill="#FFC4B0"/>
<path d="M307.783 409.617C307.568 409.617 307.393 409.442 307.393 409.227V304.045C307.393 303.83 307.568 303.655 307.783 303.655C307.998 303.655 308.172 303.83 308.172 304.045V409.227C308.172 409.442 307.998 409.617 307.783 409.617Z" fill="#FFC4B0"/>
<path d="M362.683 155.648H291.906C291.691 155.648 291.517 155.474 291.517 155.258C291.517 155.043 291.691 154.869 291.906 154.869H362.683C362.898 154.869 363.073 155.043 363.073 155.258C363.073 155.474 362.898 155.648 362.683 155.648Z" fill="#FFC4B0"/>
<path d="M341.01 184.392C340.795 184.392 340.62 184.217 340.62 184.002C340.62 177.354 335.212 171.945 328.564 171.945C328.349 171.945 328.174 171.771 328.174 171.556C328.174 171.341 328.349 171.166 328.564 171.166C335.642 171.166 341.4 176.924 341.4 184.002C341.4 184.218 341.225 184.392 341.01 184.392Z" fill="#FFC4B0"/>
<path d="M279.559 224.178C279.344 224.178 279.17 224.003 279.17 223.788V169.506C279.17 169.291 279.344 169.116 279.559 169.116C279.775 169.116 279.949 169.291 279.949 169.506V223.788C279.949 224.003 279.775 224.178 279.559 224.178Z" fill="#FFC4B0"/>
<path d="M134.148 208.115H93.9703C93.7551 208.115 93.5806 207.941 93.5806 207.726C93.5806 207.51 93.7551 207.336 93.9703 207.336H134.148C134.363 207.336 134.538 207.51 134.538 207.726C134.538 207.941 134.363 208.115 134.148 208.115Z" fill="#FFC4B0"/>
<path d="M83.6925 224.178L83.6717 224.177C83.4569 224.166 83.2917 223.983 83.3028 223.768L84.1314 207.705C84.1424 207.49 84.3297 207.325 84.5409 207.336C84.7556 207.348 84.9208 207.531 84.9098 207.746L84.0812 223.808C84.0705 224.016 83.8985 224.178 83.6925 224.178Z" fill="#FFC4B0"/>
<path d="M80.1712 292.45L80.1504 292.449C79.9359 292.438 79.7705 292.255 79.7815 292.04L82.6849 235.75C82.696 235.535 82.8839 235.365 83.0944 235.381C83.3092 235.392 83.4744 235.575 83.4633 235.79L80.5599 292.08C80.5493 292.289 80.3772 292.45 80.1712 292.45Z" fill="#FFC4B0"/>
<path d="M74.1283 409.616L74.1074 409.616C73.8927 409.605 73.7275 409.421 73.7386 409.206L79.1638 304.024C79.1748 303.81 79.3677 303.638 79.5733 303.655C79.788 303.667 79.9534 303.85 79.9422 304.065L74.517 409.247C74.5063 409.455 74.3341 409.616 74.1283 409.616Z" fill="#FFC4B0"/>
<path d="M134.148 292.45C133.933 292.45 133.758 292.276 133.758 292.06V235.77C133.758 235.555 133.933 235.381 134.148 235.381C134.363 235.381 134.538 235.555 134.538 235.77V292.06C134.538 292.276 134.363 292.45 134.148 292.45Z" fill="#FFC4B0"/>
<path d="M134.148 409.617C133.933 409.617 133.758 409.442 133.758 409.227V304.045C133.758 303.83 133.933 303.655 134.148 303.655C134.363 303.655 134.538 303.83 134.538 304.045V409.227C134.538 409.442 134.363 409.617 134.148 409.617Z" fill="#FFC4B0"/>
<path d="M150.024 155.648H79.2474C79.0322 155.648 78.8577 155.474 78.8577 155.258C78.8577 155.043 79.0322 154.869 79.2474 154.869H150.024C150.239 154.869 150.414 155.043 150.414 155.258C150.414 155.474 150.239 155.648 150.024 155.648Z" fill="#FFC4B0"/>
<path d="M100.92 184.392C100.705 184.392 100.531 184.217 100.531 184.002C100.531 176.924 106.289 171.166 113.367 171.166C113.582 171.166 113.756 171.341 113.756 171.556C113.756 171.771 113.582 171.945 113.367 171.945C106.719 171.945 101.31 177.354 101.31 184.002C101.31 184.218 101.135 184.392 100.92 184.392Z" fill="#FFC4B0"/>
<path d="M162.371 224.178C162.156 224.178 161.981 224.003 161.981 223.788V169.506C161.981 169.291 162.156 169.116 162.371 169.116C162.586 169.116 162.761 169.291 162.761 169.506V223.788C162.761 224.003 162.586 224.178 162.371 224.178Z" fill="#FFC4B0"/>
</svg>
