<svg width="673" height="417" viewBox="0 0 673 417" fill="none" xmlns="http://www.w3.org/2000/svg">
<g filter="url(#filter0_f_1_216)">
<ellipse cx="336.239" cy="382.686" rx="313.352" ry="11.107" fill="#103255" fill-opacity="0.15"/>
</g>
<path d="M597.986 0.0216492C600.25 -0.0846376 601.538 0.167518 603.358 1.52011C604.163 2.03117 604.787 2.16378 605.723 2.31536C608.5 2.83158 610.276 4.73307 611.982 6.8654C612.554 7.51572 613.154 7.98584 613.845 8.5048C617.218 11.3425 618.22 17.3563 618.7 21.5509C618.829 23.5951 618.841 25.6467 618.861 27.6943C618.869 28.2006 618.869 28.2006 618.876 28.7171C618.878 30.3927 618.86 31.744 618.056 33.2625C617.692 33.2625 617.327 33.2625 616.952 33.2625C616.709 33.0196 616.466 32.7766 616.215 32.5262C616.254 32.9533 616.254 32.9533 616.293 33.3891C616.401 35.4748 616.458 36.9326 615.134 38.6236C614.933 38.8443 614.732 39.065 614.526 39.2923C613.921 39.9105 613.921 39.9105 613.638 40.9936C613.881 40.9936 614.124 40.9936 614.375 40.9936C614.496 43.3018 614.618 45.6101 614.743 47.9883C614.257 47.7453 613.771 47.5024 613.27 47.252C613.027 47.252 612.784 47.252 612.534 47.252C611.527 49.2651 612.01 52.2337 612.649 54.3158C612.888 55.1025 612.888 55.1025 613.27 55.7194C613.635 55.8408 613.999 55.9623 614.375 56.0875C614.375 56.3305 614.375 56.5734 614.375 56.8238C614.589 56.9121 614.803 57.0003 615.023 57.0913C616.008 57.6516 616.536 58.2944 617.251 59.1707C618.515 60.6439 619.626 61.5107 621.369 62.346C621.369 62.5889 621.369 62.8319 621.369 63.0822C621.635 63.1126 621.901 63.143 622.175 63.1743C623.21 63.4504 623.21 63.4504 623.992 64.0946C624.946 64.8413 625.656 65.2164 626.754 65.6823C631.942 67.9649 636.745 71.0757 641.249 74.4947C641.524 74.7016 641.8 74.9084 642.083 75.1216C642.982 75.7985 643.876 76.4801 644.77 77.1638C645.191 77.4833 645.191 77.4833 645.62 77.8092C647.735 79.4482 649.398 81.11 650.683 83.4913C650.824 83.749 650.966 84.0066 651.111 84.2721C652.347 86.7627 653.327 89.3755 654.35 91.9586C654.631 92.6662 654.914 93.373 655.207 94.0754C655.936 95.8688 656.368 97.7319 656.823 99.6087C657.366 101.828 657.972 104.027 658.598 106.224C658.691 106.554 658.785 106.884 658.881 107.225C659.318 108.748 659.802 110.206 660.393 111.677C660.439 112.713 660.439 112.713 660.393 113.518C659.907 113.518 659.421 113.518 658.92 113.518C658.964 115.927 659.01 118.336 659.057 120.744C659.073 121.561 659.088 122.378 659.103 123.195C659.18 127.37 659.288 131.527 659.577 135.694C659.71 138.005 659.725 140.314 659.725 142.629C659.725 143.435 659.732 144.24 659.739 145.046C659.758 149.354 659.642 153.303 657.333 157.051C656.999 157.623 656.666 158.195 656.333 158.767C656.067 159.219 656.067 159.219 655.795 159.68C654.79 161.414 653.844 163.18 652.892 164.943C652.69 165.316 652.488 165.688 652.28 166.072C651.084 168.282 649.917 170.504 648.769 172.738C642.726 184.471 642.726 184.471 638.165 189.107C635.75 191.572 634.072 194.444 632.414 197.455C632.221 197.763 632.029 198.07 631.831 198.388C631.122 200.124 631.181 201.638 631.212 203.493C631.211 204.246 631.209 204.999 631.207 205.752C631.21 206.932 631.217 208.111 631.232 209.29C631.244 210.434 631.24 211.576 631.235 212.72C631.243 213.07 631.252 213.421 631.261 213.781C631.234 216.212 631.234 216.212 630.362 217.362C629.66 218.041 629.66 218.041 628.958 218.61C627.915 219.603 627.905 220.765 627.835 222.144C627.813 222.433 627.791 222.723 627.769 223.021C627.706 223.948 627.665 224.874 627.628 225.802C627.612 226.086 627.597 226.37 627.581 226.662C626.818 241.727 629.351 258.883 635.338 272.673C635.794 273.83 636.037 274.963 636.271 276.179C636.702 277.958 637.516 279.626 638.494 281.166C639.092 282.22 639.391 283.192 639.708 284.36C640.334 286.518 641.209 288.373 642.326 290.318C642.896 291.777 642.613 292.818 642.096 294.258C640.778 296.576 638.731 298.032 636.637 299.609C636.425 299.77 636.212 299.93 635.993 300.096C635.359 300.536 635.359 300.536 634.118 301.168C633.043 302.101 632.99 302.273 632.825 303.613C632.786 304.274 632.757 304.936 632.736 305.598C632.692 306.328 632.645 307.058 632.595 307.788C632.569 308.168 632.543 308.547 632.517 308.939C632.345 310.888 632.015 312.806 631.677 314.732C631.586 315.256 631.586 315.256 631.492 315.791C631.37 316.484 631.247 317.177 631.124 317.87C630.93 319.006 630.763 320.144 630.597 321.284C630.213 323.81 629.666 326.283 629.077 328.768C628.967 329.24 628.857 329.712 628.743 330.199C628.134 332.784 627.481 335.353 626.774 337.912C623.857 348.48 622.424 358.852 622.345 369.829C622.339 370.457 622.329 371.085 622.315 371.713C622.295 372.636 622.287 373.558 622.281 374.481C622.269 374.901 622.269 374.901 622.256 375.329C622.239 376.219 622.239 376.219 622.474 377.478C623.337 378.365 623.337 378.365 624.315 378.95C624.918 380.125 625.159 381.342 625.419 382.632C625.496 382.917 625.574 383.202 625.653 383.496C625.864 384.854 625.758 385.795 624.992 386.966C623.835 388.475 622.548 389.854 621.225 391.218C620.733 391.731 620.264 392.266 619.802 392.805C617.12 395.846 613.131 396.054 609.29 396.506C608.903 396.552 608.516 396.598 608.118 396.646C602.016 397.338 596.766 397.329 591.55 393.676C591.182 393.308 591.182 393.308 591.02 392.411C591.225 390.748 591.915 389.765 592.805 388.37C593.783 386.779 594.465 385.074 595.172 383.351C595.597 382.328 595.911 381.584 596.704 380.791C596.197 380.834 595.691 380.881 595.185 380.929C594.903 380.955 594.621 380.98 594.331 381.007C593.375 381.132 593.375 381.132 592.449 381.5C590.857 381.997 589.276 382.236 587.63 382.479C586.925 382.588 586.221 382.696 585.517 382.804C584.42 382.971 583.324 383.136 582.227 383.301C578.218 383.905 574.286 384.558 570.376 385.643C568.252 386.143 566.118 386.245 563.939 386.313C563.939 386.556 563.939 386.799 563.939 387.05C561.222 387.708 558.652 387.899 555.863 387.878C555.492 387.881 555.121 387.884 554.739 387.887C548.604 387.871 548.604 387.871 546.199 386.267C545.271 384.796 545.334 383.983 545.532 382.264C546.372 381.423 546.792 381.347 547.925 381.067C549.75 380.551 551.188 379.746 552.781 378.732C553.631 378.214 553.631 378.214 554.965 377.662C556.877 376.812 558.56 375.671 559.843 374.003C561.084 372.507 562.706 371.567 564.307 370.483C565.147 369.898 565.981 369.305 566.815 368.711C567.031 368.558 567.246 368.405 567.469 368.247C569.265 366.961 571.016 365.62 572.742 364.242C574.168 363.12 574.168 363.12 574.983 363.12C575.089 362.908 575.196 362.695 575.305 362.476C575.719 361.648 575.719 361.648 576.107 361.035C576.598 359.824 576.561 358.654 576.554 357.368C576.554 357.094 576.555 356.821 576.556 356.539C576.556 355.96 576.555 355.381 576.552 354.801C576.548 353.93 576.552 353.058 576.556 352.187C576.56 348.336 576.451 344.644 574.983 341.031C574.932 340.442 574.902 339.851 574.891 339.26C574.734 337.159 574.071 335.373 573.3 333.439C572.595 331.65 572.04 329.868 571.555 328.008C569.8 321.42 567.404 315.036 564.712 308.778C564.562 308.431 564.413 308.083 564.26 307.726C564.126 307.421 563.993 307.115 563.856 306.801C563.571 306.058 563.571 306.058 563.571 305.321C563.307 305.29 563.044 305.258 562.773 305.225C560.651 304.926 558.613 304.495 556.576 303.826C556.189 303.7 555.801 303.574 555.402 303.445C553.642 302.254 553.109 300.538 552.714 298.497C552.576 297.429 552.478 296.363 552.388 295.289C552.303 294.405 552.215 293.521 552.125 292.638C552.101 292.396 552.077 292.155 552.052 291.906C551.727 288.751 551.284 285.611 550.855 282.469C550.559 280.293 550.272 278.116 549.983 275.94C549.779 274.404 549.575 272.869 549.361 271.334C548.152 262.577 547.714 253.781 547.234 244.961C546.871 238.299 546.499 231.639 545.989 224.987C545.93 224.225 545.874 223.463 545.82 222.7C545.503 218.294 544.89 214.226 543.691 209.972C543.518 209.229 543.349 208.485 543.185 207.74C542.578 205.305 541.619 203.027 540.657 200.717C540.073 199.286 539.544 197.835 539.006 196.387C538.597 195.314 538.597 195.314 538.175 194.639C536.905 192.464 536.859 190.545 536.885 188.068C536.884 187.653 536.883 187.237 536.881 186.809C536.878 185.44 536.886 184.071 536.895 182.702C536.895 181.742 536.896 180.783 536.896 179.823C536.896 177.811 536.903 175.799 536.913 173.786C536.924 171.481 536.928 169.175 536.928 166.869C536.927 164.632 536.931 162.395 536.937 160.159C536.939 159.217 536.941 158.275 536.941 157.332C536.953 147.508 537.231 138.327 541.505 129.345C542.947 126.281 544.093 123.13 545.071 119.892C545.157 119.622 545.243 119.352 545.332 119.074C545.773 117.609 546.105 116.477 545.532 114.991C545.033 114.392 545.033 114.392 544.404 113.955C543.869 113.557 543.869 113.557 543.323 113.15C543.599 111.401 543.599 111.401 544.427 110.573C544.819 109.719 545.178 108.866 545.532 107.996C545.642 107.75 545.753 107.505 545.867 107.251C546.985 104.676 547.577 102.027 548.132 99.2861C548.296 98.4774 548.465 97.67 548.634 96.8626C549.121 94.5299 549.589 92.1986 549.971 89.8461C550.555 86.2666 551.341 83.4261 553.207 80.3045C554.299 78.4613 555.087 76.475 555.885 74.4902C556.585 72.8263 557.186 71.7763 558.785 70.8133C559.937 70.3862 559.937 70.3862 561.201 70.054C561.657 69.9306 562.113 69.8072 562.583 69.6801C563.411 69.4728 564.242 69.2748 565.076 69.0934C569.503 68.1189 573.242 65.9634 576.927 63.3756C578.712 62.1963 580.403 61.4739 582.484 60.9884C583.069 60.8496 583.069 60.8496 583.666 60.708C584.106 60.6076 584.106 60.6076 584.555 60.5052C584.862 58.3348 585.012 56.208 585.038 54.0167C585.049 53.7149 585.059 53.413 585.07 53.1021C585.092 51.0477 584.729 50.0287 583.45 48.3565C582.985 47.2808 582.985 47.2808 582.622 46.2396C582.499 45.8922 582.375 45.5449 582.248 45.187C581.978 44.3069 581.978 44.3069 581.978 43.5706C581.127 43.5706 580.277 43.5706 579.401 43.5706C579.31 43.2517 579.219 42.9328 579.125 42.6042C578.308 40.3995 577.185 39.1061 575.351 37.6803C575.351 37.4373 575.351 37.1943 575.351 36.944C575.959 36.701 576.566 36.458 577.192 36.2077C576.971 33.4771 576.666 30.7398 575.863 28.1099C574.414 23.0852 575.758 18.0114 577.661 13.3344C578.036 12.3704 578.318 11.3807 578.619 10.3915C579.391 8.31265 580.594 7.31186 582.346 6.01982C582.91 5.56282 582.91 5.56282 583.485 5.09658C588.184 1.29654 592.091 0.517338 597.986 0.0216492Z" fill="#103255"/>
<path d="M319.123 24.0594C319.123 24.3023 319.123 24.5453 319.123 24.7956C320.702 25.1601 322.281 25.5246 323.908 25.9001C323.908 26.1431 323.908 26.386 323.908 26.6364C324.166 26.6648 324.423 26.6933 324.688 26.7227C326.044 27.0827 326.888 27.7242 328.004 28.5691C328.385 28.852 328.765 29.1348 329.157 29.4262C331.058 31.1052 331.507 32.8469 332.065 35.2432C332.393 36.2626 332.819 36.8495 333.48 37.6807C333.753 38.2117 334.013 38.7493 334.262 39.2913C335.201 41.2289 336.342 42.9951 337.549 44.7731C338.634 46.4006 338.634 46.4006 338.634 47.6206C338.391 47.6206 338.148 47.6206 337.898 47.6206C338.005 47.9039 338.111 48.1872 338.221 48.4791C338.754 50.221 339.049 51.9694 339.347 53.764C339.41 54.1407 339.473 54.5173 339.538 54.9054C339.667 55.6742 339.795 56.4432 339.922 57.2122C340.085 58.1682 340.262 59.1196 340.448 60.0714C341.372 64.995 341.325 69.867 341.211 74.8633C340.968 74.8633 340.725 74.8633 340.475 74.8633C340.839 76.5034 340.839 76.5034 341.211 78.1766C341.705 78.1909 341.705 78.1909 342.209 78.2054C345.107 78.3413 347.462 78.6824 350.047 80.0174C350.316 80.1545 350.585 80.2916 350.862 80.433C353.096 81.6935 354.27 83.2857 355.385 85.5625C356.501 87.7477 358.064 89.1706 360.01 90.6245C360.217 90.7811 360.425 90.9376 360.639 91.0989C361.279 91.58 361.921 92.0574 362.564 92.5343C363.323 93.1016 364.082 93.6691 364.842 94.2369C365.203 94.507 365.564 94.777 365.936 95.0552C367.538 96.2691 369.1 97.5294 370.663 98.7927C371.23 99.2455 371.798 99.698 372.365 100.15C373.025 100.679 373.685 101.209 374.344 101.738C374.671 101.998 374.671 101.998 375.003 102.263C378.1 104.732 381.102 107.257 383.984 109.975C384.809 110.744 385.645 111.469 386.516 112.184C389.799 115.035 392.512 118.555 394.592 122.354C394.989 123.015 395.388 123.675 395.789 124.333C397.173 126.618 397.844 128.114 397.537 130.821C397.236 131.913 396.809 132.921 396.341 133.951C396.23 134.206 396.12 134.462 396.006 134.726C395.779 135.247 395.549 135.767 395.315 136.286C395.076 136.82 394.844 137.358 394.619 137.898C393.743 139.972 392.659 141.802 391.394 143.66C391.199 143.949 391.003 144.238 390.802 144.536C387.086 149.972 382.123 156.585 375.817 159.168C375.452 159.168 375.088 159.168 374.712 159.168C374.202 158.605 374.202 158.605 373.723 157.88C373.562 157.641 373.401 157.402 373.235 157.155C373.115 156.969 372.995 156.783 372.872 156.591C371.277 157.126 370.092 157.987 368.799 159.03C366.931 160.502 365.021 161.86 363.03 163.162C361.564 164.128 360.119 165.121 358.675 166.117C358.176 166.461 357.677 166.806 357.178 167.15C356.965 167.297 356.752 167.444 356.533 167.595C355.969 167.982 355.401 168.361 354.833 168.74C355.252 171.704 357.412 173.906 359.388 176.034C360.949 177.727 362.237 179.524 363.513 181.438C364.147 182.378 364.82 183.272 365.526 184.159C365.714 184.4 365.902 184.641 366.096 184.889C366.463 185.356 366.835 185.817 367.215 186.273C368.151 187.479 368.586 188.246 368.415 189.796C367.209 194.928 363.633 199.235 360.373 203.264C358.856 205.162 357.583 207.17 356.331 209.251C355.569 210.341 355.569 210.341 354.613 210.953C353.156 212.369 353.107 214.188 352.785 216.139C352.631 216.978 352.477 217.817 352.322 218.655C352.248 219.063 352.174 219.47 352.098 219.889C351.397 223.64 350.325 227.279 349.152 230.905C348.043 234.353 347.053 237.838 346.056 241.32C345.418 243.542 344.777 245.754 343.999 247.931C343.637 249.129 343.533 250.329 343.42 251.573C343.177 251.573 342.934 251.573 342.684 251.573C342.638 251.907 342.593 252.241 342.546 252.585C342.261 254.585 341.916 256.576 341.579 258.568C341.336 258.568 341.093 258.568 340.843 258.568C340.841 258.889 340.841 258.889 340.839 259.216C340.809 264.506 340.775 269.795 340.737 275.085C340.719 277.643 340.702 280.201 340.688 282.759C340.577 302.448 340.577 302.448 340.138 311.132C340.124 311.417 340.11 311.702 340.096 311.996C339.834 317.129 339.478 322.349 338.427 327.388C338.37 327.671 338.312 327.955 338.253 328.247C337.298 332.758 336.09 337.217 334.925 341.678C334.827 342.057 334.827 342.057 334.726 342.444C334.459 343.457 334.18 344.455 333.848 345.45C333.095 351.412 332.416 358.75 336.005 363.897C336.762 365.15 336.968 366.473 337.162 367.907C337.234 368.289 337.234 368.289 337.307 368.68C337.392 369.425 337.392 369.425 337.162 370.852C336.067 372.138 334.562 373.695 332.801 373.861C332.531 373.87 332.26 373.878 331.982 373.887C331.682 373.9 331.382 373.912 331.073 373.924C330.447 373.946 329.821 373.967 329.195 373.987C327.203 374.07 325.463 374.382 323.54 374.901C321.798 375.152 320.643 375.191 319.169 374.165C317.358 371.608 317.125 369.441 317.351 366.411C317.367 366.095 317.384 365.778 317.4 365.452C317.542 363.167 318.031 361.24 318.754 359.071C318.79 358.07 318.806 357.081 318.8 356.08C318.802 355.807 318.803 355.534 318.805 355.253C318.926 353.924 318.926 353.924 318.386 352.813C318.332 351.92 318.3 351.036 318.283 350.142C318.273 349.737 318.273 349.737 318.262 349.323C318.24 348.454 318.221 347.584 318.202 346.715C318.183 345.855 318.164 344.995 318.142 344.135C318.129 343.599 318.117 343.064 318.106 342.528C318.063 340.78 317.881 339.085 317.65 337.35C317.601 336.5 317.57 335.648 317.558 334.797C317.544 334.176 317.544 334.176 317.529 333.544C317.632 332.393 317.789 331.773 318.201 330.737C318.995 328.512 318.906 326.235 318.878 323.903C318.87 323.14 318.871 322.377 318.873 321.614C318.867 318.658 318.622 315.82 318.191 312.89C317.928 310.9 317.863 308.915 317.811 306.91C317.745 304.673 317.668 302.448 317.463 300.22C317.318 298.589 317.247 296.971 317.217 295.335C317.208 294.885 317.2 294.436 317.19 293.973C317.175 293.055 317.163 292.137 317.156 291.218C317.088 288.248 316.563 285.966 315.441 283.233C314.496 280.19 313.867 277.044 313.392 273.897C313.251 273.04 313.061 272.224 312.841 271.384C312.225 268.772 312.244 266.024 312.128 263.353C311.885 263.353 311.642 263.353 311.391 263.353C311.377 263.592 311.363 263.83 311.348 264.076C311.178 266.379 310.795 268.544 310.261 270.788C308.383 278.785 308.017 286.915 307.615 295.095C307.599 295.409 307.583 295.723 307.567 296.046C307.538 296.64 307.51 297.233 307.483 297.827C307.423 299.049 307.333 300.232 307.158 301.445C306.937 303.006 306.858 304.551 306.79 306.124C306.759 306.769 306.728 307.413 306.698 308.057C306.651 309.065 306.605 310.074 306.56 311.082C306.515 312.06 306.468 313.038 306.422 314.016C306.408 314.321 306.395 314.625 306.382 314.938C306.279 317.061 306.279 317.061 305.869 317.471C305.789 318.145 305.732 318.822 305.685 319.5C305.655 319.921 305.625 320.342 305.594 320.775C305.563 321.226 305.533 321.677 305.501 322.142C305.468 322.599 305.435 323.056 305.401 323.526C305.205 326.247 305.205 326.247 305.055 328.971C304.933 331.413 304.544 333.684 304.006 336.062C302.78 341.431 302.78 341.431 304.19 346.6C304.356 346.844 304.523 347.088 304.694 347.339C305.709 348.929 305.589 350.619 305.501 352.444C305.258 352.687 305.015 352.93 304.765 353.181C304.611 354.161 304.611 354.161 304.571 355.316C304.546 355.756 304.521 356.197 304.495 356.65C304.458 357.359 304.458 357.359 304.42 358.082C304.212 361.495 303.97 364.887 303.499 368.275C303.459 368.586 303.418 368.898 303.377 369.218C303.138 370.839 302.864 372.111 301.82 373.429C298.225 374.867 292.773 375.303 289.096 374.119C287.243 373.108 286.42 371.865 285.253 370.115C284.776 366.57 285.916 364.401 287.968 361.625C288.864 360.451 289.766 359.32 290.775 358.243C291.76 356.888 291.794 355.942 291.88 354.285C291.394 354.285 290.908 354.285 290.407 354.285C290.375 353.876 290.344 353.467 290.311 353.046C290.016 349.766 289.56 347.204 287.83 344.345C284.844 338.631 284.681 332.604 284.393 326.283C284.194 321.962 283.853 317.469 282.446 313.352C280.74 308.118 281.532 301.692 281.555 296.271C281.562 294.692 281.566 293.113 281.569 291.534C281.577 287.048 281.591 282.563 281.607 278.078C281.616 275.59 281.623 273.102 281.626 270.614C281.628 269.049 281.634 267.483 281.642 265.918C281.648 264.711 281.648 263.505 281.65 262.298C281.654 261.66 281.654 261.66 281.659 261.008C281.656 258.604 281.452 256.34 281.006 253.977C280.728 252.46 280.672 250.94 280.594 249.403C280.496 248.229 280.496 248.229 280.111 247.013C279.636 245.351 279.462 243.698 279.285 241.987C279.099 240.327 278.721 238.816 278.258 237.215C278.119 236.32 277.997 235.423 277.89 234.523C277.648 232.579 277.35 230.677 276.921 228.767C276.786 228.012 276.786 228.012 276.786 226.539C276.353 226.562 276.353 226.562 275.912 226.585C274.945 226.539 274.945 226.539 274.209 225.803C273.476 225.625 273.476 225.625 272.627 225.538C267.649 224.84 263.8 223.729 260.546 219.681C258.867 217.057 258.246 214.434 258.287 211.353C258.289 211.079 258.292 210.804 258.294 210.522C258.388 205.455 258.388 205.455 259.467 203.416C260.825 200.806 260.785 198.398 260.726 195.5C260.72 195.009 260.715 194.518 260.71 194.027C260.847 187.099 260.847 187.099 259.115 180.521C258.88 180.308 258.644 180.096 258.402 179.877C255.75 176.984 256.135 172.176 256.078 168.51C256.066 168.079 256.066 168.079 256.054 167.64C256.042 165.433 256.392 163.379 256.826 161.219C257.401 158.285 257.704 155.329 258.018 152.358C260.637 127.717 260.637 127.717 263.16 116.694C264.192 112.149 264.702 107.647 265.082 103.008C265.381 99.4309 265.712 96.2101 267.214 92.9024C267.337 92.6118 267.459 92.3212 267.585 92.0218C267.941 91.1825 268.311 90.3509 268.687 89.5201C268.808 89.247 268.93 88.9739 269.055 88.6925C269.417 87.884 269.786 87.0794 270.159 86.2758C270.276 86.0191 270.393 85.7624 270.514 85.4979C271.322 83.7896 272.25 82.4755 273.496 81.0528C274.393 80.0226 275.219 79.0732 275.91 77.8933C276.598 76.7807 277.472 76.5449 278.627 75.9678C279.338 74.9863 279.716 74.1721 280.099 73.0226C278.884 73.0226 277.669 73.0226 276.418 73.0226C275.849 71.8857 275.968 70.9715 276.05 69.7093C276.3 69.0045 276.554 68.3 276.839 67.6083C277.208 66.6188 277.458 65.6276 277.706 64.6013C277.801 64.2226 277.895 63.8439 277.992 63.4537C278.156 62.7722 278.309 62.0879 278.444 61.4002C278.962 59.1482 279.994 57.7892 281.526 56.0772C283.995 53.2609 285.81 49.8645 287.462 46.5162C287.113 46.7592 286.764 47.0021 286.404 47.2525C285.253 47.9888 285.253 47.9888 284.517 47.9888C285.076 46.4518 285.846 45.0861 286.68 43.6861C287.544 42.2165 288.307 40.8254 288.843 39.1993C289.826 36.5093 291.832 34.3078 293.593 32.0878C294.151 31.372 294.151 31.372 294.703 30.2934C296.048 28.6007 297.843 27.7665 299.726 26.7514C300.289 26.4378 300.289 26.4378 300.864 26.1179C302.744 25.0816 304.61 24.1141 306.606 23.3231C307.039 23.1501 307.039 23.1501 307.481 22.9736C311.598 21.5817 315.436 21.6812 319.123 24.0594Z" fill="#103255"/>
<path d="M191.744 13.75C191.744 13.993 191.744 14.236 191.744 14.4863C192.058 14.5822 192.372 14.6781 192.695 14.7768C194.007 15.2417 195.182 15.821 196.415 16.4651C198.03 17.2996 199.608 18.0097 201.339 18.5819C202.954 19.1343 203.896 19.7705 204.998 21.1129C205.185 21.2824 205.372 21.452 205.565 21.6266C208.572 24.933 208.257 32.5689 208.295 36.7941C208.31 38.0026 208.344 39.2093 208.382 40.4172C208.414 41.5529 208.436 42.6886 208.455 43.8246C208.466 44.387 208.481 44.9493 208.499 45.5115C208.636 49.9668 208.636 49.9668 207.851 51.4119C206.669 52.6544 205.56 52.9865 203.893 53.1415C203.331 54.2662 203.437 55.4521 203.409 56.6878C203.397 57.103 203.397 57.103 203.385 57.5265C203.361 58.4118 203.34 59.297 203.318 60.1823C203.302 60.782 203.286 61.3816 203.27 61.9813C203.23 63.4524 203.193 64.9235 203.157 66.3947C203.45 66.3731 203.742 66.3515 204.044 66.3292C207.624 66.1747 207.624 66.1747 208.843 67.19C209.169 67.5426 209.494 67.8952 209.83 68.2585C210.195 68.6335 210.562 69.0069 210.931 69.3787C211.197 69.653 211.197 69.653 211.469 69.9329C212.72 71.1548 214.211 72.0745 215.674 73.0213C215.931 73.195 216.188 73.3687 216.453 73.5477C217.689 74.3605 218.852 74.9775 220.253 75.4603C220.685 75.6273 221.118 75.7944 221.564 75.9665C221.686 76.331 221.807 76.6954 221.932 77.0709C222.663 77.3323 223.401 77.5744 224.141 77.8072C225.029 78.2791 225.884 78.7582 226.741 79.2798C226.982 79.4261 227.223 79.5724 227.471 79.7231C229.934 81.2479 232.227 82.9453 234.449 84.802C234.673 84.9862 234.897 85.1705 235.128 85.3603C238.964 88.5558 241.425 91.6186 241.898 96.7846C241.918 97.1123 241.937 97.44 241.957 97.7776C242.207 101.521 242.473 104.998 243.649 108.573C244.33 110.882 244.626 113.267 244.986 115.644C245.129 116.482 245.314 117.303 245.502 118.132C245.983 120.496 246.073 122.885 246.19 125.287C246.258 126.68 246.335 128.072 246.412 129.464C246.435 129.877 246.435 129.877 246.458 130.299C246.59 132.64 246.775 134.974 246.989 137.309C247.035 137.82 247.035 137.82 247.082 138.342C247.14 138.982 247.198 139.623 247.256 140.263C248.025 148.806 247.783 157.435 247.55 166C247.529 166.871 247.513 167.742 247.503 168.613C247.487 169.902 247.453 171.19 247.415 172.479C247.414 172.864 247.413 173.249 247.412 173.645C247.29 176.726 246.085 178.31 244.021 180.52C243.464 181.22 242.94 181.938 242.41 182.659C242.053 183.141 242.053 183.141 241.688 183.633C240.691 185.158 240.264 186.539 240.088 188.344C239.48 193.57 238.359 199.435 234.449 203.345C234.339 204.006 234.25 204.671 234.171 205.337C234.119 205.764 234.068 206.191 234.015 206.631C233.96 207.098 233.906 207.565 233.85 208.047C233.793 208.528 233.736 209.01 233.678 209.506C233.557 210.531 233.439 211.557 233.32 212.583C233.201 213.622 233.078 214.661 232.953 215.699C231.769 225.514 231.769 225.514 232.158 235.369C232.903 242.062 232.956 250.811 230.699 257.163C229.047 262.043 230.157 268.022 231.052 273C231.641 276.391 231.893 279.818 232.175 283.245C232.215 283.728 232.256 284.21 232.298 284.707C232.319 284.963 232.341 285.218 232.363 285.481C232.495 286.978 232.663 288.464 232.867 289.952C233.799 296.824 234.062 303.685 234.301 310.608C234.345 311.876 234.394 313.145 234.443 314.413C234.502 315.957 234.558 317.5 234.615 319.044C234.625 319.326 234.636 319.609 234.647 319.899C234.716 321.789 234.775 323.678 234.817 325.569C234.827 326.008 234.827 326.008 234.838 326.457C234.855 327.352 234.867 328.248 234.876 329.143C234.884 329.55 234.884 329.55 234.892 329.965C234.903 332.045 234.414 333.673 233.678 335.592C232.76 338.404 233.3 341.04 234.081 343.815C234.716 346.086 234.969 348.22 234.978 350.579C234.982 350.862 234.986 351.145 234.989 351.437C234.962 353.278 234.578 354.766 233.958 356.494C233.489 357.901 233.542 358.717 234.186 360.045C236.19 363.12 238.318 365.321 241.225 367.531C248.291 373.022 248.291 373.022 250.279 376.004C250.512 378.256 250.247 380.433 248.807 382.263C246.708 383.451 244.649 383.627 242.272 383.804C241.932 383.835 241.591 383.865 241.24 383.896C236.629 384.278 232.706 384.566 228.927 381.527C228.604 381.072 228.291 380.611 227.984 380.146C225.543 376.721 220.785 374.663 216.72 373.964C216.375 373.908 216.03 373.853 215.674 373.796C215.633 373.469 215.592 373.143 215.55 372.806C215.396 371.578 215.241 370.35 215.085 369.122C215.018 368.594 214.952 368.065 214.886 367.537C214.446 363.948 214.446 363.948 213.799 360.393C213.492 358.955 213.367 357.563 213.288 356.096C213.032 351.574 212.015 347.362 210.794 343.021C209.483 338.266 209.207 334.029 211.289 329.477C213.804 323.912 211.759 317.387 210.155 311.775C208.905 307.292 208.6 302.818 208.288 298.188C208.207 297.005 208.124 295.822 208.037 294.639C207.983 293.91 207.932 293.18 207.887 292.451C207.735 290.393 207.37 288.57 206.699 286.617C206.47 285.809 206.47 285.809 206.47 284.336C206.227 284.336 205.984 284.336 205.734 284.336C205.694 284.101 205.653 283.865 205.612 283.622C205.553 283.303 205.495 282.985 205.435 282.657C205.379 282.345 205.324 282.033 205.267 281.712C205.015 280.6 205.015 280.6 204.441 279.405C203.878 278.042 203.698 276.914 203.525 275.455C202.78 270.581 199.897 266.161 197.228 262.098C196.898 261.511 196.898 261.511 196.898 260.775C196.655 260.775 196.412 260.775 196.162 260.775C195.746 259.319 195.332 257.861 194.92 256.403C194.803 255.995 194.686 255.587 194.566 255.167C193.964 253.034 193.423 250.915 193.012 248.737C192.753 247.394 192.432 246.067 192.113 244.738C191.984 244.197 191.855 243.656 191.727 243.116C191.667 242.861 191.606 242.606 191.544 242.343C191.229 241.005 190.933 239.662 190.64 238.318C188.874 238.668 188.874 238.668 187.465 239.696C186.898 240.626 186.621 241.454 186.339 242.506C186.234 242.895 186.129 243.285 186.02 243.686C185.912 244.101 185.804 244.517 185.693 244.945C185.579 245.373 185.465 245.802 185.347 246.243C184.676 248.811 184.114 251.376 183.645 253.987C183.06 257.194 181.978 260.005 180.656 262.972C180.127 264.194 179.665 265.439 179.204 266.688C179.115 266.929 179.026 267.169 178.934 267.416C178.755 267.901 178.575 268.386 178.396 268.871C177.925 270.146 177.449 271.42 176.973 272.694C176.834 273.067 176.834 273.067 176.692 273.448C176.205 274.754 175.686 276.039 175.132 277.319C174.389 279.147 173.975 281.042 173.548 282.963C173.016 285.331 172.327 287.628 171.587 289.939C170.028 295.482 169.569 301.349 168.896 307.046C168.709 308.62 168.52 310.194 168.331 311.767C168.287 312.141 168.242 312.515 168.196 312.9C167.953 314.925 167.685 316.943 167.384 318.961C166.882 322.375 166.987 325.72 167.263 329.158C167.701 335.059 167.29 340.645 166.525 346.494C166.122 349.595 165.791 352.674 165.759 355.805C165.719 357.575 165.471 360.309 164.134 361.647C164.101 362.521 164.091 363.385 164.098 364.26C164.098 364.521 164.099 364.782 164.099 365.051C164.101 365.887 164.106 366.724 164.111 367.56C164.112 368.126 164.114 368.692 164.116 369.258C164.12 370.648 164.126 372.038 164.134 373.427C160.694 375.475 157.564 376.113 153.554 376.223C151.03 376.537 149.503 377.971 147.705 379.617C144.19 382.691 141.193 384.515 136.367 384.25C134.373 384.093 132.387 383.871 130.402 383.62C129.885 383.556 129.885 383.556 129.358 383.49C127.521 383.229 125.952 382.939 124.374 381.895C123.516 379.456 124.363 377.618 125.287 375.287C126.747 372.356 129.296 370.207 132.335 369.033C134.275 368.23 135.248 366.951 136.523 365.328C137.215 364.487 137.916 363.654 138.617 362.82C138.787 362.613 138.958 362.406 139.134 362.192C140.021 361.129 140.863 360.172 142.045 359.438C142.288 359.438 142.531 359.438 142.781 359.438C142.773 359.105 142.773 359.105 142.764 358.766C142.596 351.313 142.596 351.313 143.333 347.68C144.226 343.218 144.25 338.457 143.7 333.943C143.498 332.195 143.464 330.471 143.469 328.712C143.468 328.391 143.468 328.071 143.468 327.74C143.467 327.066 143.468 326.393 143.469 325.719C143.471 324.699 143.469 323.68 143.467 322.661C143.467 322.001 143.468 321.342 143.469 320.682C143.468 320.383 143.467 320.084 143.466 319.776C143.473 318.214 143.545 316.681 143.7 315.125C143.91 312.978 143.948 310.847 143.963 308.691C143.974 307.867 143.984 307.043 143.995 306.219C144.01 304.94 144.024 303.661 144.033 302.381C144.044 301.133 144.06 299.885 144.078 298.637C144.08 298.259 144.081 297.882 144.082 297.494C144.151 293.407 145.276 290.087 147.246 286.556C148.87 283.507 149.146 280.329 149.179 276.92C149.185 276.577 149.192 276.234 149.198 275.881C149.217 274.796 149.232 273.71 149.247 272.625C149.263 271.543 149.28 270.462 149.299 269.38C149.311 268.712 149.321 268.043 149.329 267.374C149.357 265.611 149.447 263.867 149.594 262.11C149.785 259.755 149.835 257.416 149.838 255.054C149.839 254.639 149.84 254.223 149.841 253.795C149.843 252.927 149.844 252.059 149.844 251.191C149.845 249.859 149.852 248.527 149.859 247.195C149.86 246.348 149.86 245.501 149.861 244.654C149.865 244.057 149.865 244.057 149.869 243.448C149.867 242.897 149.867 242.897 149.865 242.334C149.866 242.011 149.866 241.688 149.867 241.355C149.829 240.423 149.829 240.423 149.04 239.423C147.162 234.134 147.281 228.669 147.176 223.127C147.151 221.936 147.117 220.746 147.084 219.556C147.08 219.197 147.076 218.838 147.072 218.468C147.003 216.066 146.481 214.296 145.358 212.18C144.77 211.057 144.51 210.247 144.415 208.976C144.387 208.645 144.36 208.314 144.331 207.974C144.306 207.631 144.28 207.287 144.254 206.934C143.939 202.62 143.939 202.62 142.403 198.628C141.46 196.835 141.301 195.03 141.102 193.036C140.866 190.853 140.601 188.701 140.162 186.547C139.456 183.069 139.208 179.643 139.054 176.102C139.014 175.253 138.972 174.403 138.93 173.554C138.904 173.033 138.88 172.512 138.857 171.991C138.802 170.803 138.704 169.644 138.544 168.465C138.353 166.963 138.314 165.475 138.323 163.961C138.323 163.683 138.323 163.405 138.323 163.118C138.324 162.202 138.328 161.285 138.332 160.368C138.333 159.714 138.335 159.06 138.336 158.406C138.342 156.328 138.352 154.25 138.363 152.172C138.366 151.667 138.366 151.667 138.369 151.151C138.394 146.753 138.433 142.356 138.48 137.959C138.495 136.577 138.508 135.195 138.519 133.813C138.634 119.548 138.634 119.548 139.379 113.538C139.526 112.288 139.618 111.034 139.717 109.778C139.795 108.877 139.873 107.976 139.951 107.075C139.985 106.623 140.019 106.171 140.054 105.706C140.493 100.854 142.345 96.8651 144.599 92.602C144.875 92.0657 144.875 92.0657 145.156 91.5184C148.272 85.5728 152.457 82.3626 158.165 79.0574C160.195 77.8657 161.856 76.5906 163.543 74.9426C165.488 73.2857 167.783 72.1155 170.006 70.8711C170.699 70.4787 171.385 70.0758 172.067 69.6649C172.448 69.4362 172.83 69.2074 173.222 68.9717C173.714 68.6756 173.714 68.6756 174.216 68.3735C175.248 67.8305 176.273 67.4703 177.387 67.131C177.651 63.3625 177.651 63.3625 176.044 60.0788C175.51 59.3512 175.202 58.6431 174.856 57.8124C174.103 56.2386 173.115 55.9572 171.496 55.3504C170.129 53.9455 169.288 52.5494 169.288 50.5645C169.045 50.5645 168.802 50.5645 168.551 50.5645C168.551 49.1067 168.551 47.6488 168.551 46.1468C168.916 46.1468 169.28 46.1468 169.656 46.1468C169.581 45.8025 169.581 45.8025 169.504 45.4513C169.355 44.7666 169.206 44.0819 169.057 43.3972C168.888 42.6196 168.718 41.8421 168.549 41.0647C168.185 39.3983 167.822 37.7323 167.486 36.0602C167.046 33.8929 166.597 31.9307 165.606 29.9484C164.845 28.4258 165.019 26.6011 165.516 25.0087C166.577 22.5238 168.025 20.7826 170.116 19.0651C170.444 18.7913 170.773 18.5175 171.111 18.2354C173.379 16.61 175.714 15.7117 178.399 15.0155C178.688 14.9386 178.977 14.8616 179.275 14.7823C179.852 14.6293 180.429 14.4776 181.007 14.3274C181.707 14.1439 182.404 13.9506 183.1 13.7558C186.146 12.9269 188.75 12.5216 191.744 13.75Z" fill="#103255"/>
<path d="M68.6508 12.8544C69.1657 13.0362 69.6762 13.2312 70.1809 13.4397C71.1793 13.8214 72.1795 14.0147 73.2253 14.2335C75.7276 14.8567 77.4719 15.7906 78.9617 17.9351C79.3396 18.5645 79.7055 19.2013 80.0589 19.8448C80.5092 20.6455 80.9905 21.3348 81.5545 22.0566C84.947 26.8061 83.5247 33.3687 82.774 38.7841C83.2182 38.955 83.2182 38.955 83.6714 39.1293C84.6147 39.5204 84.6147 39.5204 84.9829 39.8886C85.0667 40.9926 85.0172 42.096 84.9829 43.2019C84.981 43.4662 84.9791 43.7305 84.9771 44.0029C84.8517 46.4531 84.0525 49.0953 82.4059 50.9329C80.7658 51.1151 80.7658 51.1151 79.0926 51.3011C78.7281 54.9457 78.7281 54.9457 78.3563 58.6639C78.9637 58.6639 79.5712 58.6639 80.197 58.6639C80.9822 59.4851 80.9822 59.4851 81.7156 60.5737C81.9595 60.9282 82.2034 61.2827 82.4548 61.6479C82.8904 62.3233 83.3066 63.012 83.6944 63.7159C84.726 65.2821 86.1477 65.6294 87.928 66.0268C89.8705 66.2229 91.822 66.261 93.7723 66.3231C99.8488 66.5246 107.256 68.1054 111.925 72.2652C112.582 72.9862 113.147 73.6884 113.698 74.4942C113.842 74.6934 113.986 74.8927 114.134 75.098C115.528 77.1408 116.137 79.193 116.712 81.581C116.803 81.9345 116.894 82.2881 116.988 82.6523C118.035 86.8252 118.592 90.9657 118.865 95.2555C118.896 95.7089 118.927 96.1623 118.958 96.6295C119.055 98.0634 119.15 99.4974 119.243 100.932C119.339 102.372 119.435 103.813 119.532 105.253C119.592 106.146 119.651 107.038 119.709 107.931C119.843 109.934 120.014 111.903 120.325 113.886C121.302 124.364 120.578 134.937 119.891 145.407C119.796 146.86 119.706 148.313 119.622 149.767C119.111 158.575 118.233 167.044 116.187 175.636C115.867 177.011 115.593 178.391 115.338 179.78C114.861 181.886 113.629 183.794 112.594 185.674C112.467 185.91 112.34 186.147 112.209 186.39C111.817 187.115 111.414 187.833 111.006 188.55C110.889 188.766 110.772 188.981 110.652 189.203C109.754 190.731 108.76 191.606 107.349 192.683C106.206 193.681 105.67 194.232 105.29 195.713C105.209 197.116 105.24 198.468 105.323 199.87C105.34 200.371 105.357 200.872 105.371 201.373C105.42 202.769 105.504 204.16 105.599 205.554C105.618 205.859 105.638 206.165 105.658 206.48C105.779 208.155 106.035 209.794 106.335 211.444C106.404 211.836 106.474 212.228 106.545 212.632C107.308 217.617 107.308 217.617 108.544 222.488C108.58 223.44 108.596 224.381 108.593 225.333C108.594 225.764 108.594 225.764 108.594 226.203C108.594 226.816 108.594 227.43 108.592 228.043C108.59 228.945 108.592 229.848 108.594 230.75C108.596 232.319 108.582 233.887 108.559 235.455C108.549 236.151 108.541 236.848 108.534 237.544C108.461 243.789 107.602 249.708 106.404 255.828C106.159 257.115 105.915 258.401 105.672 259.687C105.512 260.531 105.352 261.375 105.191 262.219C104.652 265.055 104.137 267.895 103.653 270.741C103.592 271.092 103.531 271.442 103.469 271.804C102.535 277.393 102.755 282.015 104.644 287.351C105.574 290.026 106.046 292.811 106.542 295.594C106.653 296.205 106.77 296.816 106.894 297.425C107.434 300.156 107.646 302.866 107.808 305.643C108.018 309.252 108.018 309.252 108.358 312.85C108.81 316.853 108.983 320.827 109.013 324.854C109.015 325.113 109.017 325.372 109.019 325.639C109.038 328.062 109.05 330.484 109.052 332.906C109.054 334.247 109.063 335.588 109.077 336.929C109.08 337.433 109.081 337.938 109.079 338.443C108.988 342.08 108.988 342.08 110.753 345.081C111.386 345.675 112.031 346.258 112.686 346.829C113.939 348.061 114.688 348.809 114.711 350.603C114.61 351.51 114.61 351.51 114.434 352.443C114.384 352.786 114.334 353.128 114.282 353.48C114.13 354.386 113.984 355.252 113.698 356.125C113.455 356.246 113.212 356.368 112.962 356.493C113.534 358.545 114.203 360.079 115.424 361.831C116.655 363.702 117.074 364.965 116.643 367.169C116.331 368.418 115.965 369.636 115.539 370.851C115.296 370.851 115.053 370.851 114.803 370.851C114.705 371.069 114.606 371.287 114.505 371.512C114.057 372.34 113.601 372.873 112.932 373.53C112.71 373.749 112.488 373.969 112.259 374.195C112.028 374.42 111.797 374.645 111.558 374.877C111.331 375.101 111.104 375.325 110.87 375.555C110.424 375.995 109.978 376.433 109.53 376.871C108.987 377.404 108.451 377.943 107.916 378.484C104.953 381.411 100.464 385.011 96.0962 385.047C95.3367 384.981 94.5774 384.912 93.8184 384.84C93.2618 384.843 92.7052 384.851 92.1488 384.863C87.7245 384.899 87.7245 384.899 86.2901 383.749C84.8308 381.569 84.5556 379.55 84.5687 376.971C84.5673 376.693 84.5659 376.415 84.5644 376.128C84.5669 374.688 84.6299 373.361 84.9829 371.955C78.525 371.811 73.6239 373.259 67.6229 375.575C61.8844 377.767 54.5786 378.821 48.6746 376.672C46.8945 375.836 45.0307 374.883 44.1188 373.06C44.0312 371.482 43.9989 370.356 44.8551 369.01C45.4548 368.585 45.4548 368.585 46.1666 368.245C46.4278 368.115 46.6891 367.986 46.9582 367.852C47.375 367.651 47.375 367.651 47.8003 367.445C50.0588 366.305 52.0292 365.112 53.9566 363.455C55.1246 362.475 56.3835 361.65 57.6568 360.814C60.68 358.454 62.1956 353.993 62.7303 350.295C62.7819 347.741 62.3132 345.452 61.6675 342.994C61.2433 340.878 61.3347 338.761 61.4216 336.613C61.6646 336.613 61.9076 336.613 62.1579 336.613C63.0741 329.84 63.7217 323.845 60.9812 317.463C57.4233 308.689 56.5976 298.491 55.8089 289.155C55.6313 287.055 55.3688 285.003 54.9791 282.933C54.8831 282.409 54.7873 281.885 54.6915 281.361C54.5311 280.487 54.3705 279.613 54.2097 278.738C54.0687 277.778 54.021 276.884 54.0357 275.915C54.039 275.628 54.0424 275.34 54.0458 275.044C54.0501 274.83 54.0543 274.617 54.0587 274.397C53.8158 274.397 53.5728 274.397 53.3224 274.397C53.2375 274.165 53.1525 273.934 53.065 273.695C52.4665 272.124 51.8689 270.665 50.9295 269.266C49.7926 267.539 49.196 265.667 48.5366 263.721C48.3471 263.213 48.1556 262.707 47.9613 262.202C47.1027 259.909 46.3615 257.644 45.8215 255.253C45.3156 253.177 44.5245 251.526 43.3825 249.731C43.0374 249.187 42.6922 248.642 42.3471 248.097C42.1158 247.745 42.1158 247.745 41.8798 247.386C41.5418 246.786 41.5418 246.786 41.5418 246.05C41.2988 246.05 41.0559 246.05 40.8055 246.05C38.8177 241.7 37.9352 237.213 37.0937 232.54C37.0267 232.169 37.0267 232.169 36.9583 231.791C36.8358 231.109 36.7165 230.426 36.5973 229.743C36.4899 228.782 36.4899 228.782 36.0196 228.379C35.9438 227.778 35.8914 227.174 35.8485 226.57C35.8202 226.184 35.792 225.798 35.7629 225.4C35.7337 224.979 35.7045 224.558 35.6745 224.123C35.6276 223.475 35.6276 223.475 35.5797 222.814C35.4793 221.425 35.3812 220.035 35.2833 218.646C35.1851 217.268 35.0863 215.89 34.987 214.513C34.9253 213.654 34.8642 212.796 34.8038 211.937C34.7221 210.791 34.6363 209.645 34.5471 208.499C34.5199 208.145 34.4928 207.792 34.4649 207.428C34.4224 206.936 34.4224 206.936 34.3791 206.434C34.355 206.148 34.3309 205.862 34.3062 205.567C34.1088 204.405 33.5647 203.687 32.8214 202.793C31.8217 201.53 30.9249 200.305 30.1293 198.904C29.376 197.609 28.5544 196.468 27.5983 195.315C23.1346 189.894 23.1346 189.894 23.1346 187.883C22.8916 187.883 22.6486 187.883 22.3983 187.883C22.3167 187.685 22.235 187.488 22.1509 187.285C21.4358 185.709 20.7445 184.342 19.5164 183.111C15.2267 178.615 15.0557 173.022 14.5087 167.095C14.3822 165.687 14.3822 165.687 14.102 164.304C10.3274 148.444 15.6838 127.824 17.8661 111.906C18.2928 108.793 18.7033 105.677 19.0963 102.559C19.4642 99.6828 19.9801 96.8483 20.5576 94.0058C20.6542 93.5198 20.7505 93.0338 20.8466 92.5476C21.1158 91.1924 21.3886 89.838 21.662 88.4837C21.7848 87.8624 21.9075 87.2412 22.0301 86.6199C22.0895 86.3309 22.1488 86.0419 22.2099 85.7442C22.3482 85.0527 22.4761 84.3592 22.5982 83.6647C23.7405 77.6207 26.1203 70.1905 30.8656 66.0268C33.8927 64.1929 37.3377 64.2825 40.7595 64.1861C44.8354 64.0708 48.4853 63.8436 52.218 61.9773C53.0769 61.9624 53.9362 61.9613 54.795 61.9773C54.795 59.1036 53.8325 57.5398 52.149 55.2399C51.5452 54.3407 51.3562 53.7928 51.1136 52.7736C50.1968 52.2963 50.1968 52.2963 49.2728 52.0373C49.2728 51.7944 49.2728 51.5514 49.2728 51.3011C48.7869 51.3011 48.3009 51.3011 47.8003 51.3011C47.0486 50.0578 46.9774 49.1123 46.9921 47.6714C46.9944 47.2609 46.9968 46.8504 46.9993 46.4275C47.0085 45.7875 47.0085 45.7875 47.018 45.1346C47.0213 44.7023 47.0246 44.27 47.028 43.8246C47.0367 42.7579 47.0488 41.6914 47.064 40.6249C47.4284 40.6249 47.7929 40.6249 48.1684 40.6249C48.0664 40.4251 47.9644 40.2253 47.8592 40.0194C47.7259 39.7561 47.5925 39.4927 47.4551 39.2213C47.3227 38.9608 47.1903 38.7002 47.0539 38.4318C45.3373 34.8261 45.6092 28.7947 46.8813 25.0823C48.4279 21.3835 50.6685 18.3295 54.401 16.6681C55.2438 16.2913 56.0378 15.8586 56.8428 15.4069C57.1171 15.2532 57.3914 15.0994 57.674 14.941C58.4258 14.5153 59.1763 14.0876 59.926 13.6583C62.4741 12.2022 65.7784 12.2374 68.6508 12.8544Z" fill="#103255"/>
<path d="M465.646 22.6144C466.804 23.1508 467.992 23.5882 469.188 24.036C469.572 24.1836 469.957 24.3312 470.353 24.4832C470.621 24.5862 470.89 24.6892 471.166 24.7953C471.166 25.0382 471.166 25.2812 471.166 25.5316C471.394 25.6303 471.622 25.729 471.857 25.8307C472.639 26.2679 472.639 26.2679 473.375 27.3723C473.011 27.3723 472.646 27.3723 472.271 27.3723C472.505 27.8022 472.505 27.8022 472.744 28.2409C474.12 30.8656 475.268 33.5027 476.251 36.2998C476.358 36.5996 476.465 36.8994 476.574 37.2083C477.694 40.4781 478.301 43.6317 478.276 47.091C478.274 47.4092 478.272 47.7274 478.27 48.0552C478.165 53.7181 476.656 58.8549 474.848 64.1868C474.362 64.0653 473.876 63.9438 473.375 63.8186C473.434 64.7216 473.55 65.5153 473.744 66.3956C473.806 66.6842 473.868 66.9727 473.932 67.27C474.711 69.5248 475.976 70.4318 478.035 71.4614C480.48 72.5986 482.913 73.5376 485.51 74.2698C486.26 74.4948 486.26 74.4948 486.997 74.863C486.997 75.1059 486.997 75.3489 486.997 75.5992C487.248 75.679 487.5 75.7587 487.759 75.8408C489.159 76.4831 490.208 77.3581 491.368 78.3603C491.597 78.5569 491.825 78.7534 492.06 78.956C493.9 80.5853 495.319 82.3125 496.568 84.4347C496.727 84.6905 496.885 84.9463 497.047 85.2098C498.041 86.866 498.041 86.866 498.041 87.748C498.284 87.748 498.527 87.748 498.777 87.748C502.692 95.0751 502.692 95.0751 504.3 98.7924C504.765 99.8673 505.233 100.941 505.703 102.014C505.827 102.297 505.952 102.581 506.079 102.873C507.121 105.216 508.309 107.45 509.577 109.679C510.262 111.089 510.595 112.358 510.926 113.886C511.169 113.886 511.412 113.886 511.662 113.886C514.481 118.943 516.449 124.012 518.035 129.572C518.506 131.204 518.996 132.83 519.485 134.456C519.581 134.774 519.676 135.091 519.774 135.419C520.126 136.591 520.479 137.759 520.866 138.92C520.963 140.591 520.951 142.263 520.958 143.936C520.969 144.624 520.969 144.624 520.981 145.327C520.991 147.636 520.892 149.549 520.049 151.7C519.447 153.465 519.298 155.349 519.048 157.189C518.675 159.797 518.299 162.33 517.53 164.851C516.77 167.422 516.527 169.989 516.264 172.651C515.671 178.592 514.174 183.181 510.995 188.229C510.835 188.484 510.674 188.74 510.509 189.003C506.554 195.231 506.554 195.231 504.3 195.983C503.602 196.008 502.904 196.014 502.206 196.006C501.84 196.002 501.474 195.999 501.097 195.996C500.678 195.989 500.678 195.989 500.25 195.983C500.144 196.257 500.037 196.531 499.928 196.814C498.964 199.163 498.138 200.571 495.809 201.689C494.396 202.637 493.87 203.44 493.52 205.063C493.401 205.773 493.293 206.484 493.192 207.197C493.103 207.777 493.103 207.777 493.012 208.37C492.313 213.19 492.016 218.045 491.714 222.903C491.623 224.292 491.532 225.68 491.44 227.068C491.383 227.922 491.328 228.776 491.275 229.63C491.25 230.014 491.225 230.398 491.2 230.794C491.169 231.296 491.169 231.296 491.137 231.808C491.046 232.797 491.046 232.797 490.865 233.857C490.18 238.069 490.24 242.464 490.209 246.72C490.206 247.118 490.206 247.118 490.203 247.524C490.194 248.931 490.187 250.337 490.181 251.744C490.176 252.878 490.166 254.012 490.151 255.147C490.045 263.288 490.739 270.797 492.371 278.791C492.956 281.89 492.995 284.952 492.985 288.094C492.985 288.658 492.986 289.222 492.987 289.787C492.988 290.961 492.986 292.136 492.983 293.31C492.979 294.809 492.981 296.307 492.986 297.806C492.988 298.968 492.987 300.13 492.986 301.292C492.985 301.845 492.986 302.397 492.987 302.95C492.994 305.688 492.94 308.204 492.151 310.844C492.04 311.674 491.948 312.508 491.876 313.343C491.834 313.812 491.791 314.281 491.747 314.764C491.706 315.247 491.664 315.73 491.622 316.228C491.364 319.207 491.069 322.161 490.633 325.12C489.949 329.786 489.684 334.412 489.528 339.122C489.488 340.241 489.446 341.361 489.404 342.48C489.378 343.167 489.354 343.854 489.331 344.54C489.267 346.34 489.136 348.109 488.907 349.895C488.453 354.546 490.72 360.976 493.623 364.593C495.308 366.356 497.155 367.95 499.075 369.451C499.882 370.115 499.882 370.115 500.25 370.851C500.406 372.552 500.457 374.059 499.767 375.637C499.047 376.49 498.449 377.06 497.31 377.199C496.898 377.197 496.898 377.197 496.478 377.195C496.019 377.194 496.019 377.194 495.55 377.193C495.225 377.189 494.901 377.184 494.567 377.179C494.069 377.174 494.069 377.174 493.562 377.169C485.034 377.055 485.034 377.055 482.395 374.878C481.843 374.165 481.843 374.165 481.843 373.428C481.6 373.428 481.357 373.428 481.106 373.428C481.074 373.202 481.041 372.977 481.008 372.744C480.808 371.921 480.808 371.921 480.139 371.502C479.886 371.378 479.633 371.254 479.372 371.126C478.958 370.916 478.958 370.916 478.535 370.702C478.099 370.491 478.099 370.491 477.655 370.276C477.084 369.994 476.513 369.71 475.944 369.423C475.563 369.238 475.563 369.238 475.174 369.049C474.436 368.617 473.923 368.194 473.375 367.538C472.906 364.516 473.486 361.427 474.848 358.703C474.884 357.922 474.896 357.141 474.897 356.36C474.898 355.653 474.898 355.653 474.898 354.933C474.898 354.686 474.897 354.44 474.896 354.187C474.894 353.44 474.896 352.694 474.898 351.947C474.898 351.475 474.897 351.002 474.897 350.516C474.896 349.866 474.896 349.866 474.896 349.204C474.881 348.066 474.881 348.066 474.665 347.125C474.42 345.881 474.422 344.654 474.415 343.391C474.408 342.836 474.4 342.28 474.392 341.724C474.388 341.434 474.384 341.145 474.379 340.847C474.297 335.747 473.937 330.941 472.862 325.947C472.44 323.836 472.121 321.707 471.792 319.579C471.677 318.835 471.56 318.091 471.443 317.346C471.021 314.631 470.65 311.915 470.319 309.188C470.049 306.996 469.661 304.846 469.245 302.677C468.33 297.337 468.095 292.056 468.026 286.65C467.942 280.744 467.403 275.555 464.862 270.141C463.175 266.368 463.175 262.124 462.883 258.061C462.766 251.88 462.766 251.88 461.227 246.05C461.169 245.514 461.125 244.977 461.089 244.44C460.89 242.21 460.333 240.107 459.754 237.951C458.782 242.768 458.959 247.582 459.018 252.47C459.037 254.118 459.052 255.767 459.064 257.415C459.07 257.788 459.076 258.162 459.082 258.546C459.096 260.563 458.929 262.181 458.281 264.089C458.155 264.67 458.036 265.252 457.928 265.837C457.675 267.148 457.389 268.443 457.071 269.74C455.774 275.182 455.492 280.235 455.704 285.81C455.726 286.576 455.747 287.342 455.768 288.108C455.897 292.298 456.216 296.436 456.693 300.599C456.936 302.785 457.148 304.974 457.361 307.162C457.385 307.406 457.409 307.65 457.433 307.902C457.769 311.357 458.058 314.813 458.304 318.276C458.517 321.246 458.738 324.215 459.018 327.18C459.057 327.627 459.057 327.627 459.097 328.082C459.245 329.584 459.514 330.82 460.122 332.196C460.301 332.892 460.469 333.59 460.628 334.29C460.988 335.791 461.424 337.174 462.032 338.593C462.598 339.957 462.984 341.01 462.699 342.504C462.312 342.834 462.312 342.834 461.917 343.171C461.689 343.437 461.461 343.703 461.227 343.977C461.281 344.692 461.281 344.692 461.508 345.478C461.582 345.774 461.656 346.07 461.732 346.375C461.808 346.677 461.884 346.979 461.963 347.29C462.08 347.837 462.194 348.385 462.305 348.934C462.363 349.205 462.42 349.477 462.479 349.757C462.595 350.304 462.708 350.851 462.819 351.399C463.144 352.917 463.569 354.251 464.212 355.665C465.138 357.9 465.101 360.018 465.046 362.407C465.04 362.842 465.034 363.278 465.028 363.727C464.84 373.489 464.84 373.489 462.699 375.637C460.077 377.669 456.118 376.892 452.997 376.53C452.334 376.443 451.672 376.352 451.011 376.258C450.695 376.215 450.379 376.172 450.054 376.127C447.137 375.672 447.137 375.672 446.133 374.533C445.482 372.368 446.315 370.051 446.961 367.975C449.051 361.247 449.713 354.69 449.814 347.658C449.385 347.495 449.385 347.495 448.947 347.329C447.797 346.848 447.238 346.457 446.501 345.449C446.357 344.178 446.357 344.178 446.409 342.78C446.422 342.315 446.435 341.85 446.449 341.371C446.466 341.016 446.483 340.661 446.501 340.295C446.258 340.295 446.015 340.295 445.765 340.295C445.067 337.96 444.53 335.63 444.108 333.232C443.798 331.502 443.468 329.863 442.776 328.243C442.189 326.738 441.759 325.176 441.306 323.626C440.864 322.163 440.3 320.976 439.506 319.679C439.234 318.792 439.234 318.792 439.023 317.815C438.693 316.388 438.326 314.989 437.88 313.595C436.57 309.492 435.703 305.499 435.196 301.22C435.095 300.454 435.095 300.454 434.72 299.431C434.706 298.572 434.704 297.713 434.72 296.854C434.477 296.854 434.234 296.854 433.984 296.854C433.935 296.544 433.886 296.233 433.836 295.914C433.738 295.309 433.738 295.309 433.639 294.691C433.575 294.29 433.511 293.888 433.445 293.475C433.301 292.459 433.301 292.459 432.879 291.7C432.623 289.819 432.474 287.923 432.314 286.031C432.289 285.736 432.264 285.44 432.238 285.135C431.793 279.695 431.665 274.271 431.638 268.815C431.636 268.418 431.634 268.022 431.632 267.613C431.617 264.346 431.613 261.078 431.614 257.81C431.615 255.339 431.61 252.869 431.596 250.398C431.592 249.254 431.597 248.109 431.602 246.965C431.598 246.273 431.595 245.58 431.59 244.887C431.594 244.572 431.597 244.257 431.601 243.932C431.605 242.248 431.605 242.248 430.704 240.897C429.946 240.534 429.205 240.197 428.416 239.907C426.536 239.176 424.676 238.405 422.825 237.606C422.539 237.487 422.253 237.368 421.958 237.245C419.773 236.293 418.39 235.176 417.049 233.165C416.894 232.286 416.759 231.403 416.635 230.519C416.331 228.558 415.915 227.091 414.834 225.391C412.477 221.646 412.687 217.595 412.742 213.311C412.765 210.752 412.78 208.587 411.533 206.275C410.899 205.053 410.66 203.741 410.377 202.402C410.261 201.88 410.145 201.358 410.029 200.836C409.973 200.577 409.917 200.319 409.86 200.052C409.698 199.345 409.5 198.646 409.299 197.948C408.744 195.757 408.696 193.49 408.559 191.243C408.502 190.346 408.444 189.45 408.385 188.554C408.361 188.16 408.336 187.766 408.311 187.36C408.271 186.417 408.271 186.417 407.846 185.675C407.71 184.531 407.597 183.393 407.5 182.246C407.469 181.881 407.438 181.516 407.406 181.14C406.813 173.811 406.326 166.43 406.281 159.076C406.278 158.795 406.274 158.514 406.271 158.224C406.281 156.395 406.476 154.625 406.712 152.812C407.323 148.021 407.446 143.188 407.662 138.368C408.527 119.27 408.527 119.27 410.1 110.872C410.156 110.571 410.211 110.269 410.267 109.959C411.278 104.445 412.602 99.0677 414.155 93.6809C414.444 92.6369 414.694 91.5943 414.925 90.5364C416.035 85.5956 418.431 82.6034 422.662 79.7524C424.284 78.5674 425.1 77.3027 425.977 75.5072C427.138 73.2827 428.442 71.7306 430.302 70.0771C432.073 68.3867 432.542 66.9726 432.879 64.5549C432.272 64.5549 431.665 64.5549 431.039 64.5549C430.832 63.8416 430.832 63.8416 430.671 63.0823C430.792 62.9608 430.914 62.8393 431.039 62.7142C431.201 60.9317 431.084 59.7106 430.371 58.0664C428.819 54.4646 427.429 49.4885 428.768 45.6343C429.021 45.0942 429.284 44.5589 429.558 44.0294C430.21 42.5973 430.425 41.067 430.671 39.5211C430.185 39.5211 429.699 39.5211 429.198 39.5211C430.141 34.2724 432.795 29.161 437.224 26.0306C438.213 25.4209 439.213 24.8778 440.271 24.3984C441.012 24.0617 441.012 24.0617 441.777 23.5384C443.178 22.754 444.631 22.2938 446.156 21.8041C446.451 21.7068 446.746 21.6095 447.051 21.5093C453.384 19.4386 459.63 19.7518 465.646 22.6144Z" fill="#103255"/>
<path d="M551.421 173.525C551.543 173.525 551.664 173.525 551.79 173.525C551.764 175.661 551.732 177.797 551.693 179.933C551.681 180.66 551.67 181.387 551.662 182.114C551.65 183.158 551.631 184.202 551.61 185.245C551.606 185.735 551.606 185.735 551.603 186.234C551.595 186.536 551.588 186.838 551.581 187.15C551.575 187.549 551.575 187.549 551.568 187.957C551.421 188.619 551.421 188.619 550.317 189.355C549.19 189.332 549.19 189.332 548.108 188.987C546.992 187.415 547.187 185.306 547.372 183.465C548.011 179.722 548.987 176.541 551.421 173.525Z" fill="white"/>
<defs>
<filter id="filter0_f_1_216" x="7.62939e-05" y="348.692" width="672.478" height="67.9881" filterUnits="userSpaceOnUse" color-interpolation-filters="sRGB">
<feFlood flood-opacity="0" result="BackgroundImageFix"/>
<feBlend mode="normal" in="SourceGraphic" in2="BackgroundImageFix" result="shape"/>
<feGaussianBlur stdDeviation="11.4436" result="effect1_foregroundBlur_1_216"/>
</filter>
</defs>
</svg>
